<?xml version="1.0" encoding="utf-8"?>
<!-- Generator: Adobe Illustrator 24.0.0, SVG Export Plug-In . SVG Version: 6.00 Build 0)  -->
<svg version="1.1" xmlns="http://www.w3.org/2000/svg" xmlns:xlink="http://www.w3.org/1999/xlink" x="0px" y="0px"
	 viewBox="0 0 576 512" style="enable-background:new 0 0 576 512;" xml:space="preserve">
<style type="text/css">
	.st0{opacity:0.44;}
</style>
<g id="Layer_1">
	<path d="M402.6,83.2L402.6,83.2c-3.8-3.8-10-3.8-13.8,0L170.4,301.6l-10.3,92.8c-1.4,12.4,9.1,22.9,21.5,21.5l92.8-10.3
		l218.4-218.4c3.8-3.8,3.8-10,0-13.8L402.6,83.2z"/>
</g>
<g id="Layer_1_copy">
	<path class="st0" d="M170.4,301.6l-10.3,92.8c-1.4,12.4,9.1,22.9,21.5,21.5l92.8-10.3L170.4,301.6z"/>
	<path class="st0" d="M427.5,297.7l-40,40c-2.2,2.3-3.5,5.3-3.5,8.5V448H64V128h229.8c3.2,0,6.2-1.3,8.5-3.5l40-40
		c7.6-7.6,2.2-20.5-8.5-20.5H48C21.5,64,0,85.5,0,112v352c0,26.5,21.5,48,48,48h352c26.5,0,48-21.5,48-48V306.2
		C448,295.5,435.1,290.2,427.5,297.7z"/>
	<path class="st0" d="M564.6,60.3l-48.8-48.8c-15.2-15.2-39.9-15.2-55.2,0l-35.4,35.4c-3.8,3.8-3.8,10,0,13.8l90.2,90.2
		c3.8,3.8,10,3.8,13.8,0l35.4-35.4C579.8,100.2,579.8,75.5,564.6,60.3z"/>
</g>
</svg>
