<?xml version="1.0" encoding="utf-8"?>
<!-- Generator: Adobe Illustrator 24.0.0, SVG Export Plug-In . SVG Version: 6.00 Build 0)  -->
<svg version="1.1" id="Layer_1" xmlns="http://www.w3.org/2000/svg" xmlns:xlink="http://www.w3.org/1999/xlink" x="0px" y="0px"
	 viewBox="0 0 512 512" style="enable-background:new 0 0 512 512;" xml:space="preserve">
<style type="text/css">
	.st0{opacity:0.44;}
</style>
<g>
	<path d="M464,96h-88l-12.4-32.9c-7-18.7-24.9-31.1-44.9-31.1H193.2c-20,0-37.9,12.4-44.9,31.1L136,96H48c-26.5,0-48,21.5-48,48v288
		c0,26.5,21.5,48,48,48h416c26.5,0,48-21.5,48-48V144C512,117.5,490.5,96,464,96z M256,408c-66.2,0-120-53.8-120-120
		s53.8-120,120-120s120,53.8,120,120S322.2,408,256,408z"/>
	<circle class="st0" cx="256" cy="288" r="88"/>
</g>
</svg>
