<?xml version="1.0" encoding="utf-8"?>
<!-- Generator: Adobe Illustrator 24.0.0, SVG Export Plug-In . SVG Version: 6.00 Build 0)  -->
<svg version="1.1" id="Layer_1" xmlns="http://www.w3.org/2000/svg" xmlns:xlink="http://www.w3.org/1999/xlink" x="0px" y="0px"
	 viewBox="0 0 640 512" style="enable-background:new 0 0 640 512;" xml:space="preserve">
<style type="text/css">
	.st0{opacity:0.44;}
</style>
<path d="M207.6,335.7L117,256l90.6-79.7c5.1-4.5,5.5-12.3,0.8-17.2l-43.5-46.4c-4.5-4.8-12.1-5.1-17-0.5L3.8,247.2
	c-5.1,4.7-5.1,12.8,0,17.5l144.1,135.1c4.9,4.6,12.5,4.4,17-0.5l43.5-46.4C213,348,212.7,340.2,207.6,335.7z"/>
<path d="M636.2,247.3L492.1,112.1c-4.8-4.5-12.4-4.3-17,0.5L431.6,159c-4.6,4.9-4.3,12.7,0.8,17.2L523,256l-90.6,79.7
	c-5.1,4.5-5.5,12.3-0.8,17.2l43.5,46.4c4.5,4.9,12.1,5.1,17,0.6v0l144.1-135.1C641.3,260.1,641.3,252,636.2,247.3z"/>
<path class="st0" d="M430.8,29.8c0-5.3-3.3-10.1-8.7-11.6l-61-17.7c-6.4-1.8-13.1,1.8-14.9,8.2L209.7,478.9
	c-0.3,1.2-0.5,2.5-0.5,3.7c0,5.3,3.3,10.1,8.7,11.6l61,17.7c6.4,1.9,13-1.8,14.9-8.2L430.3,33.5C430.6,32.3,430.8,31.1,430.8,29.8z"
	/>
</svg>
