<!DOCTYPE svg PUBLIC "-//W3C//DTD SVG 20010904//EN" "http://www.w3.org/TR/2001/REC-SVG-20010904/DTD/svg10.dtd">
<svg version="1.0" xmlns="http://www.w3.org/2000/svg" width="1600px" height="1600px" viewBox="0 0 16000 16000" preserveAspectRatio="xMidYMid meet">
<g id="layer1" fill="#31c5f0" stroke="none">
 <path d="M7456 15463 c-4 -5 -67 -13 -139 -20 -175 -16 -229 -23 -247 -30 -8 -4 -55 -12 -105 -19 -174 -25 -240 -35 -255 -41 -8 -4 -44 -12 -80 -19 -63 -12 -204 -42 -305 -64 -27 -6 -58 -15 -67 -20 -10 -6 -29 -10 -42 -10 -14 0 -27 -4 -30 -9 -4 -5 -29 -12 -56 -16 -27 -4 -52 -11 -55 -15 -3 -5 -26 -12 -50 -16 -25 -3 -48 -10 -50 -15 -3 -4 -26 -11 -50 -15 -25 -3 -48 -10 -51 -15 -3 -5 -12 -9 -21 -9 -14 0 -65 -20 -104 -40 -9 -5 -33 -12 -53 -15 -20 -4 -39 -11 -42 -16 -3 -5 -13 -9 -22 -9 -9 -1 -35 -9 -57 -20 -22 -11 -45 -19 -52 -20 -6 0 -28 -9 -50 -19 -21 -10 -72 -31 -113 -46 -41 -15 -91 -34 -110 -42 -19 -8 -44 -18 -55 -23 -19 -8 -223 -105 -315 -150 -25 -12 -70 -35 -100 -52 -30 -17 -91 -49 -135 -71 -44 -22 -119 -65 -167 -94 -47 -29 -88 -53 -91 -53 -3 0 -27 -15 -53 -33 -27 -18 -67 -43 -89 -57 -21 -14 -49 -32 -62 -40 -12 -8 -58 -37 -100 -65 -114 -72 -295 -204 -426 -310 -34 -28 -80 -64 -102 -80 -220 -161 -704 -634 -962 -941 -126 -150 -160 -191 -173 -210 -8 -12 -55 -75 -104 -140 -129 -172 -140 -187 -151 -205 -5 -9 -58 -88 -116 -175 -108 -161 -139 -212 -181 -294 -13 -25 -36 -64 -51 -87 -15 -24 -27 -46 -27 -49 0 -4 -17 -34 -38 -68 -53 -85 -252 -490 -252 -511 0 -3 -12 -32 -26 -63 -14 -31 -35 -79 -46 -107 -23 -60 -46 -114 -57 -135 -5 -9 -12 -30 -15 -48 -4 -17 -18 -53 -32 -79 -13 -27 -24 -56 -24 -65 0 -9 -4 -19 -9 -22 -5 -4 -12 -24 -16 -46 -4 -22 -11 -42 -16 -46 -5 -3 -9 -15 -9 -27 0 -12 -6 -34 -14 -49 -8 -14 -17 -45 -21 -67 -4 -23 -11 -43 -16 -47 -5 -3 -9 -15 -9 -28 0 -12 -4 -26 -10 -32 -5 -5 -14 -32 -20 -59 -6 -28 -12 -54 -13 -60 -2 -5 -9 -37 -16 -70 -7 -33 -16 -69 -21 -80 -10 -22 -26 -92 -41 -175 -6 -30 -14 -62 -18 -71 -5 -8 -12 -46 -16 -82 -4 -37 -11 -70 -16 -73 -5 -3 -9 -20 -9 -39 0 -19 -4 -36 -9 -39 -5 -3 -12 -44 -16 -91 -4 -47 -10 -87 -15 -90 -4 -3 -11 -49 -15 -103 -4 -53 -9 -100 -12 -104 -2 -4 -13 -2 -23 4 -15 10 -22 10 -32 0 -9 -9 -8 -16 7 -32 10 -11 22 -17 27 -14 11 7 -1 -226 -12 -241 -32 -43 -32 -1268 0 -1310 4 -5 11 -66 15 -135 4 -69 10 -129 15 -135 4 -5 11 -54 15 -107 4 -54 10 -100 15 -103 4 -3 11 -43 15 -90 4 -47 11 -87 16 -91 5 -3 9 -20 9 -39 0 -19 4 -36 9 -39 5 -3 12 -39 16 -78 4 -40 10 -77 14 -83 3 -5 11 -35 18 -65 6 -30 19 -83 27 -117 9 -35 23 -91 32 -125 8 -35 15 -71 15 -80 0 -10 4 -20 10 -23 5 -4 9 -16 9 -28 0 -22 25 -107 41 -138 4 -9 11 -33 14 -53 4 -20 11 -38 15 -41 5 -3 11 -23 15 -45 4 -22 10 -42 15 -45 5 -3 11 -23 15 -45 4 -22 11 -42 16 -46 5 -3 9 -12 9 -21 0 -8 6 -29 14 -46 7 -18 21 -48 30 -69 9 -20 16 -43 16 -51 0 -9 4 -18 9 -21 5 -3 12 -18 15 -33 4 -16 13 -41 20 -58 8 -16 19 -41 24 -55 6 -14 25 -55 41 -92 17 -37 31 -70 31 -74 0 -18 201 -427 245 -499 17 -27 43 -75 58 -105 48 -93 77 -143 92 -160 8 -9 15 -20 15 -24 0 -4 10 -22 23 -39 25 -35 43 -64 53 -87 8 -18 119 -185 166 -252 169 -237 206 -288 237 -325 20 -23 56 -68 81 -100 24 -32 52 -67 62 -78 9 -11 39 -46 65 -77 202 -239 567 -609 762 -773 46 -38 91 -77 100 -86 33 -32 309 -247 376 -294 39 -27 102 -71 140 -99 39 -28 78 -55 87 -61 9 -5 51 -34 93 -63 42 -28 80 -52 85 -52 4 0 13 -6 19 -14 7 -8 31 -24 54 -35 23 -12 49 -25 57 -30 8 -5 60 -36 115 -69 99 -60 120 -71 284 -159 46 -24 91 -49 100 -53 30 -17 132 -60 140 -60 5 0 37 -16 71 -35 34 -19 64 -35 67 -35 2 0 25 -9 51 -21 50 -22 103 -44 140 -60 44 -18 68 -28 114 -48 26 -12 51 -21 56 -21 5 0 23 -7 38 -15 16 -8 37 -15 46 -15 9 0 20 -4 23 -10 3 -5 14 -10 23 -10 9 0 30 -7 46 -15 15 -8 35 -15 42 -15 8 0 22 -4 32 -10 9 -5 58 -21 107 -35 50 -14 97 -30 105 -34 9 -5 35 -12 58 -16 23 -4 44 -10 47 -15 3 -4 28 -11 55 -15 27 -4 52 -11 55 -15 3 -4 28 -11 55 -15 27 -4 52 -11 56 -16 3 -5 18 -9 34 -9 16 0 31 -4 34 -9 3 -5 30 -12 61 -16 30 -3 57 -10 60 -15 2 -4 34 -11 70 -15 36 -3 67 -10 70 -15 2 -4 38 -11 80 -15 41 -4 77 -11 81 -16 3 -5 20 -9 39 -9 19 0 46 -4 60 -10 14 -5 59 -13 98 -16 40 -3 81 -10 92 -15 11 -5 70 -13 130 -19 61 -5 157 -15 215 -22 139 -15 1225 -16 1365 0 55 6 152 16 215 22 63 6 124 15 135 20 11 4 52 11 92 14 39 3 84 11 98 16 14 6 41 10 60 10 19 0 36 4 39 9 3 5 39 12 81 16 41 4 77 11 81 16 8 13 51 11 73 -3 17 -10 18 -13 4 -23 -13 -10 -12 -15 5 -47 20 -34 20 -36 2 -41 -20 -5 -22 -56 -2 -80 7 -8 9 -17 6 -20 -4 -3 -4 -13 0 -22 5 -14 8 -14 31 1 26 17 29 15 37 -31 2 -12 11 -19 21 -19 9 1 14 -3 10 -9 -3 -5 2 -16 12 -23 10 -7 18 -23 19 -36 1 -18 8 -24 31 -26 16 -2 33 -9 37 -15 4 -7 13 -12 20 -12 7 -1 12 -7 10 -14 -1 -7 2 -19 8 -25 14 -18 1 -27 -21 -13 -22 14 -45 -3 -36 -27 7 -18 108 -16 131 3 12 10 23 8 57 -8 28 -14 46 -18 54 -11 7 6 19 4 34 -6 12 -9 25 -13 28 -10 3 3 12 1 18 -4 9 -7 21 -7 39 0 23 8 26 7 26 -13 1 -33 31 -67 63 -69 29 -3 33 -8 16 -25 -15 -15 15 -28 66 -28 36 0 41 3 50 32 8 23 14 30 21 23 15 -15 40 15 27 33 -5 6 -8 26 -8 42 1 17 -2 35 -7 42 -5 7 -5 14 2 18 6 3 8 10 5 15 -7 12 42 41 73 43 18 2 28 9 31 22 6 32 41 70 64 70 18 0 23 7 25 35 3 23 -2 38 -13 46 -10 7 -12 15 -6 18 6 4 8 13 5 20 -3 7 2 16 10 19 9 4 16 13 16 22 0 12 3 13 19 3 15 -9 24 -8 45 5 14 10 26 26 26 37 0 13 5 18 15 14 18 -7 32 23 17 38 -8 8 -15 8 -25 0 -11 -9 -14 -8 -14 3 0 8 8 15 18 15 27 0 31 15 10 34 -21 19 -17 55 6 69 19 12 16 48 -5 54 -10 2 -26 18 -36 34 -9 16 -21 29 -27 29 -5 0 -9 5 -9 11 0 8 5 7 16 -2 14 -11 18 -11 28 2 6 9 16 14 23 12 16 -6 27 17 15 29 -6 6 -16 7 -23 2 -19 -11 -49 -13 -43 -2 3 5 1 14 -4 21 -6 7 -12 27 -13 45 -3 27 1 35 24 47 15 8 25 10 22 6 -7 -13 22 -34 35 -26 7 4 10 15 7 24 -4 17 18 30 138 81 79 33 85 36 185 83 52 25 118 55 145 66 54 24 133 64 205 103 25 14 72 40 105 58 33 18 78 44 100 58 22 14 65 39 95 55 30 16 62 36 71 43 8 8 20 14 26 14 5 0 59 33 120 72 60 40 117 78 126 83 58 36 430 309 499 366 87 73 232 196 282 239 136 117 440 421 598 600 61 69 124 140 142 159 17 19 49 58 71 86 22 29 78 101 125 161 80 103 111 145 135 183 5 9 27 37 47 63 21 26 38 49 38 53 0 4 27 44 60 91 33 46 60 87 60 90 0 3 17 31 38 62 43 63 123 198 170 282 150 274 230 429 273 525 12 28 39 87 60 133 22 45 39 87 39 93 0 12 22 66 46 112 8 16 14 34 14 40 0 7 6 24 14 38 7 15 28 67 46 115 17 49 35 96 40 104 4 9 11 31 15 50 4 19 11 40 15 45 4 6 11 26 15 45 4 19 11 42 16 52 5 10 13 26 18 37 5 10 13 36 17 57 3 22 10 44 14 49 5 6 11 28 15 50 4 22 11 45 15 50 4 6 11 30 15 55 4 25 11 50 15 55 4 6 11 33 15 60 4 28 11 56 17 62 6 7 8 22 5 33 -3 11 -2 22 3 25 4 3 11 30 15 61 4 32 10 64 15 73 11 23 28 98 35 161 4 30 10 64 15 75 9 20 21 97 44 280 7 55 15 107 18 115 4 8 9 42 11 75 3 33 11 105 19 160 18 141 18 1238 -1 1380 -7 55 -15 127 -18 160 -2 33 -7 67 -11 75 -3 8 -11 60 -18 115 -23 184 -35 260 -44 280 -5 11 -13 49 -19 85 -16 102 -23 134 -31 145 -4 6 -13 51 -20 100 -7 50 -17 95 -21 100 -4 6 -10 33 -14 60 -4 28 -11 55 -15 60 -5 6 -11 31 -15 58 -4 26 -11 50 -16 52 -4 3 -11 26 -15 50 -3 25 -10 47 -14 50 -5 3 -11 23 -15 45 -4 22 -11 42 -16 46 -5 3 -9 13 -9 23 0 10 -7 32 -15 47 -8 16 -15 39 -15 51 0 12 -4 24 -9 27 -5 4 -12 24 -16 46 -4 22 -11 42 -16 46 -5 3 -9 13 -9 22 -1 9 -9 35 -20 57 -11 22 -19 46 -20 53 0 7 -4 20 -9 30 -19 34 -41 90 -41 101 0 6 -4 19 -10 29 -14 26 -47 104 -55 132 -13 46 -237 508 -281 581 -12 20 -41 71 -63 115 -47 90 -57 106 -88 151 -13 17 -23 36 -23 41 0 5 -34 60 -75 122 -41 62 -75 114 -75 116 0 5 -195 284 -250 357 -93 124 -127 167 -182 234 -166 199 -293 341 -436 487 -143 144 -197 196 -430 409 -74 68 -274 230 -349 284 -21 15 -91 66 -154 113 -123 93 -418 291 -469 316 -8 5 -40 25 -70 45 -31 21 -99 60 -151 87 -52 27 -134 71 -184 97 -122 65 -384 193 -460 225 -89 38 -117 50 -170 69 -79 30 -176 70 -196 81 -9 5 -33 12 -53 15 -20 4 -39 11 -42 16 -3 5 -12 9 -21 9 -8 0 -29 6 -46 14 -18 8 -54 22 -82 31 -27 9 -59 21 -70 25 -11 5 -36 12 -55 16 -19 3 -39 10 -45 14 -5 4 -29 11 -52 15 -24 4 -45 10 -48 15 -3 4 -26 11 -51 15 -26 4 -54 10 -63 15 -23 11 -81 28 -132 39 -24 6 -87 19 -139 31 -140 31 -236 50 -320 63 -41 7 -80 15 -85 19 -6 3 -52 9 -103 13 -51 4 -95 12 -98 16 -3 5 -25 9 -50 9 -25 0 -53 4 -63 9 -10 6 -75 13 -145 17 -69 4 -129 11 -132 15 -6 11 -1288 12 -1298 2z m-251 -993 c3 -5 18 -10 33 -10 15 0 47 -11 72 -25 25 -13 54 -28 66 -34 53 -24 294 -294 294 -329 0 -5 9 -17 20 -27 11 -10 23 -27 26 -39 4 -11 17 -35 30 -52 13 -17 29 -46 36 -65 6 -19 22 -48 35 -65 12 -17 23 -35 23 -40 0 -4 18 -44 39 -89 21 -44 48 -102 60 -130 12 -27 26 -58 31 -67 6 -10 10 -23 10 -29 0 -10 5 -23 44 -111 9 -20 16 -42 16 -50 0 -8 4 -18 9 -23 10 -12 51 -142 51 -165 0 -9 4 -20 9 -25 16 -16 67 -292 56 -303 -1 -2 -27 12 -56 31 -30 19 -74 45 -99 58 -25 13 -85 51 -133 84 -48 33 -96 65 -105 70 -56 32 -359 258 -430 321 -62 55 -268 259 -297 295 -43 52 -75 97 -75 105 0 4 -7 15 -15 24 -24 27 -84 148 -91 185 -3 19 -10 38 -15 41 -12 7 -11 171 1 179 6 3 10 14 10 23 0 79 177 252 259 252 16 0 33 5 36 10 3 6 15 10 25 10 10 0 22 -4 25 -10z m2589 -139 c3 -5 26 -12 51 -15 24 -4 47 -11 50 -15 2 -5 24 -11 47 -15 23 -4 47 -10 53 -15 5 -4 35 -13 65 -20 30 -7 64 -16 75 -21 11 -5 43 -16 70 -26 28 -10 55 -21 60 -25 6 -3 26 -10 45 -14 19 -4 41 -11 50 -16 36 -19 84 -39 93 -39 5 0 39 -14 76 -31 36 -17 75 -34 86 -39 85 -35 418 -198 500 -244 33 -18 87 -48 120 -66 33 -18 85 -49 115 -69 74 -48 91 -58 115 -70 29 -14 152 -93 210 -136 246 -179 404 -299 481 -367 342 -296 588 -544 784 -788 19 -24 60 -73 90 -109 31 -36 62 -76 70 -87 8 -12 55 -77 105 -145 122 -168 195 -275 215 -314 5 -11 28 -49 50 -84 22 -34 40 -67 40 -71 0 -4 6 -13 14 -19 8 -7 24 -31 36 -54 11 -23 26 -51 33 -62 14 -24 102 -185 128 -235 21 -41 88 -184 118 -255 12 -27 28 -63 36 -80 7 -16 20 -46 28 -65 9 -19 27 -62 42 -95 15 -33 30 -69 34 -80 40 -102 51 -133 51 -147 0 -9 5 -20 10 -23 6 -3 10 -14 10 -23 0 -9 6 -29 14 -44 8 -15 17 -42 21 -60 4 -18 20 -72 36 -121 16 -48 29 -96 29 -107 0 -10 4 -21 9 -25 6 -3 13 -27 17 -53 3 -26 10 -51 14 -57 4 -5 11 -30 15 -55 4 -25 11 -49 15 -55 5 -5 11 -36 15 -68 4 -31 11 -60 16 -63 5 -3 9 -18 9 -33 0 -15 3 -31 8 -35 7 -7 22 -88 45 -241 7 -44 15 -84 18 -90 4 -5 10 -50 14 -100 4 -49 11 -103 16 -120 13 -44 41 -435 51 -735 4 -89 -10 -388 -22 -485 -6 -44 -14 -129 -20 -190 -14 -170 -60 -492 -71 -510 -4 -5 -10 -39 -14 -75 -4 -36 -11 -69 -15 -75 -4 -5 -10 -23 -13 -40 -16 -83 -33 -151 -39 -160 -3 -5 -9 -32 -13 -60 -4 -27 -11 -54 -15 -60 -4 -5 -11 -30 -15 -55 -4 -24 -11 -51 -15 -60 -4 -8 -15 -42 -25 -75 -9 -33 -20 -67 -24 -75 -5 -8 -14 -40 -21 -70 -7 -30 -16 -59 -20 -65 -5 -5 -11 -27 -15 -48 -4 -20 -11 -40 -16 -43 -5 -3 -9 -13 -9 -22 -1 -9 -9 -35 -20 -57 -11 -22 -19 -48 -20 -57 0 -9 -4 -19 -9 -22 -5 -3 -12 -17 -15 -31 -4 -14 -18 -51 -32 -83 -14 -31 -29 -66 -34 -77 -5 -11 -26 -58 -48 -105 -22 -47 -50 -107 -62 -135 -35 -79 -97 -205 -131 -265 -37 -66 -68 -121 -99 -175 -12 -22 -27 -47 -34 -55 -6 -8 -16 -24 -22 -35 -50 -92 -69 -124 -90 -152 -13 -17 -24 -35 -24 -38 0 -4 -13 -24 -30 -45 -16 -21 -30 -41 -30 -44 0 -3 -25 -40 -55 -81 -30 -40 -55 -76 -55 -79 0 -3 -28 -41 -62 -85 -35 -43 -95 -121 -135 -172 -40 -52 -98 -123 -130 -160 -32 -36 -83 -94 -113 -128 -30 -35 -66 -74 -79 -87 -23 -21 -26 -22 -36 -6 -7 9 -15 51 -19 92 -4 41 -11 80 -16 85 -4 6 -11 37 -15 70 -4 33 -10 65 -15 70 -4 6 -10 34 -14 63 -4 30 -11 61 -16 70 -4 10 -16 46 -25 82 -9 36 -20 72 -25 80 -4 9 -11 35 -15 58 -4 23 -11 44 -15 47 -5 3 -12 26 -16 50 -3 25 -10 48 -15 51 -5 3 -9 12 -9 21 0 14 -20 66 -41 105 -5 10 -9 23 -9 30 -1 7 -9 31 -20 53 -11 22 -20 47 -20 55 0 8 -7 24 -15 34 -8 11 -15 26 -15 34 0 32 -167 370 -248 502 -175 285 -297 450 -456 617 -74 78 -82 90 -68 100 25 16 -1 42 -26 27 -14 -9 -27 -3 -72 38 -30 27 -94 81 -142 119 -79 63 -86 72 -75 89 8 15 9 22 0 31 -16 16 -36 1 -30 -22 5 -18 4 -18 -20 1 -14 11 -31 20 -38 20 -6 0 -20 9 -30 20 -10 11 -15 20 -10 20 4 0 2 7 -5 15 -9 10 -16 12 -25 5 -8 -7 -33 3 -81 33 -73 44 -152 84 -269 137 -38 17 -78 35 -87 41 -10 5 -23 9 -30 9 -7 0 -25 6 -40 14 -15 8 -42 17 -60 21 -18 4 -37 10 -43 14 -10 6 -127 32 -235 52 -30 6 -71 14 -90 19 -122 29 -177 33 -475 37 -296 4 -362 2 -575 -24 -25 -3 -49 -9 -55 -13 -5 -4 -39 -11 -75 -14 -36 -4 -69 -11 -75 -15 -5 -4 -43 -13 -82 -20 -40 -7 -75 -17 -79 -22 -3 -5 -15 -9 -27 -9 -12 0 -35 -7 -51 -15 -15 -8 -33 -15 -40 -15 -6 0 -38 -14 -71 -30 -71 -35 -73 -36 -51 -11 17 19 17 20 -3 30 -11 6 -28 11 -38 11 -26 0 -63 -53 -63 -90 0 -16 -5 -30 -11 -30 -21 0 -167 -116 -250 -200 -52 -53 -108 -122 -142 -178 -31 -51 -57 -94 -57 -98 0 -3 -11 -30 -26 -61 -14 -31 -28 -70 -31 -87 -3 -17 -9 -36 -14 -41 -4 -6 -11 -41 -15 -78 -4 -37 -11 -70 -15 -73 -12 -7 -12 -311 0 -318 4 -3 11 -40 15 -83 3 -42 11 -82 16 -87 6 -6 10 -20 10 -33 0 -22 17 -74 46 -140 8 -17 14 -36 14 -41 0 -6 6 -23 14 -39 8 -15 23 -46 33 -68 65 -141 189 -283 288 -330 33 -15 68 -32 77 -36 10 -5 31 -9 48 -9 33 0 38 -15 15 -46 -21 -28 -20 -113 3 -120 9 -3 25 -10 35 -15 12 -7 25 -4 43 8 26 17 26 17 20 -5 -4 -12 -2 -31 4 -42 15 -29 37 -11 46 38 6 29 3 39 -14 52 -23 19 -16 40 13 36 14 -2 19 -11 20 -32 0 -24 5 -30 28 -32 30 -4 48 21 28 41 -8 8 -7 15 3 26 8 9 16 27 18 40 l3 23 28 -27 c29 -29 31 -52 5 -47 -9 1 -20 -4 -27 -12 -16 -19 9 -37 56 -39 31 -2 38 1 37 16 -1 10 5 17 17 17 10 0 19 -6 19 -14 0 -7 7 -19 15 -26 8 -7 12 -17 9 -22 -4 -6 10 -25 30 -43 35 -31 36 -33 22 -60 -17 -32 -11 -82 11 -105 13 -13 16 -13 27 2 8 11 16 14 22 8 6 -6 23 -3 47 9 34 17 37 17 37 2 0 -23 19 -41 37 -34 11 4 11 -2 -3 -36 -13 -34 -14 -44 -4 -57 21 -24 53 -13 69 24 12 25 21 32 43 32 35 0 49 27 23 46 -10 7 -22 11 -28 7 -6 -3 -7 -1 -3 5 4 6 13 9 20 6 8 -3 23 6 34 20 21 27 55 36 46 13 -3 -8 2 -20 11 -27 12 -10 18 -10 30 0 9 7 14 19 11 27 -3 8 1 16 9 18 8 3 23 8 33 12 9 3 22 5 29 4 21 -3 149 96 138 107 -3 3 4 11 14 19 22 15 27 88 8 111 -7 9 -6 19 2 35 14 27 10 169 -5 174 -6 2 -17 -3 -24 -12 -17 -20 -23 -19 -59 11 -17 14 -31 22 -32 17 -1 -4 -4 3 -8 17 -4 14 -13 26 -21 26 -8 1 -19 2 -24 3 -6 0 -1 7 9 15 11 8 16 19 12 30 -4 9 -3 14 2 11 20 -12 21 16 3 43 l-20 27 22 11 c16 7 27 7 39 0 12 -7 20 -7 28 1 18 18 0 36 -32 29 -16 -3 -29 -3 -29 -1 0 12 41 45 53 43 8 -2 13 13 15 42 3 39 0 48 -25 68 l-28 22 25 20 c14 11 21 20 15 20 -5 1 0 5 13 10 27 12 29 30 2 37 -22 6 -26 18 -10 28 6 4 10 12 9 18 -3 29 3 34 39 33 31 -1 37 2 35 19 -4 35 5 49 22 35 14 -11 14 -15 -1 -37 -20 -31 -11 -55 18 -51 17 2 22 9 20 25 -5 34 12 35 57 3 22 -17 45 -30 51 -30 5 0 10 -5 10 -10 0 -6 7 -13 16 -17 24 -9 108 -86 254 -233 167 -167 300 -321 300 -348 0 -5 6 -15 14 -21 8 -7 22 -26 31 -44 8 -18 25 -48 37 -67 11 -19 34 -60 51 -90 17 -30 45 -82 64 -115 66 -119 173 -363 173 -397 0 -9 4 -19 9 -23 5 -3 13 -31 17 -63 3 -31 10 -61 14 -67 4 -5 11 -62 15 -125 4 -63 11 -121 16 -130 21 -38 49 -650 31 -673 -5 -7 -13 -47 -17 -89 -4 -43 -11 -80 -16 -84 -5 -3 -9 -13 -9 -23 0 -43 -93 -193 -185 -299 -55 -63 -186 -171 -216 -177 -17 -4 -42 -13 -57 -21 -15 -8 -35 -14 -44 -14 -9 0 -20 -4 -23 -10 -10 -16 -29 -11 -58 16 -19 18 -26 32 -22 45 8 24 -19 36 -40 19 -12 -10 -15 -9 -15 8 0 26 -25 45 -60 45 -26 0 -28 3 -24 26 3 15 -1 35 -10 46 -13 17 -18 18 -36 7 -17 -10 -25 -10 -36 -1 -7 6 -28 9 -44 7 -17 -3 -33 -1 -36 4 -3 5 -12 4 -20 -3 -7 -6 -11 -15 -8 -20 12 -20 -25 -7 -39 14 -12 18 -18 20 -34 11 -10 -6 -18 -15 -17 -20 2 -12 -69 -52 -98 -56 -13 -2 -28 4 -35 12 -10 13 -14 13 -29 -2 -14 -14 -15 -20 -4 -32 11 -14 9 -21 -4 -13 -12 7 -43 -36 -39 -56 3 -15 -4 -31 -20 -47 -13 -14 -26 -33 -30 -43 -4 -9 -18 -22 -32 -27 -27 -10 -31 -20 -14 -37 8 -8 8 -17 -1 -33 -7 -12 -9 -35 -6 -51 6 -33 -8 -46 -30 -28 -12 10 -16 9 -21 -9 -5 -19 -12 -22 -62 -22 -31 0 -61 4 -66 8 -6 5 -44 15 -85 22 -41 7 -79 16 -85 20 -5 4 -23 10 -40 14 -16 4 -50 16 -75 27 -25 12 -58 27 -75 34 -92 38 -322 159 -410 216 -16 10 -39 23 -50 28 -11 5 -46 28 -78 50 -32 23 -60 41 -63 41 -3 0 -75 53 -161 117 -86 65 -169 127 -184 138 -55 41 -126 102 -184 160 -78 77 -255 269 -275 298 -8 13 -60 79 -115 147 -128 160 -165 209 -165 216 0 3 -9 16 -20 28 -33 36 -105 136 -155 215 -6 9 -45 68 -86 131 -94 143 -146 226 -194 316 -37 68 -76 139 -122 219 -12 22 -32 60 -43 85 -11 25 -25 53 -30 63 -22 39 -30 55 -58 117 -58 125 -72 159 -72 170 0 7 -6 26 -14 43 -8 18 -28 66 -46 107 -17 41 -35 82 -39 90 -5 9 -12 30 -16 49 -4 18 -13 44 -21 59 -8 15 -14 35 -14 44 0 9 -4 19 -9 22 -5 3 -12 22 -16 42 -3 20 -11 45 -16 55 -5 11 -13 27 -18 38 -5 10 -13 35 -16 55 -4 20 -11 39 -16 41 -4 3 -11 26 -15 50 -3 25 -10 48 -15 50 -4 3 -11 27 -15 53 -3 26 -10 52 -14 57 -4 6 -13 37 -20 70 -6 33 -15 67 -20 75 -4 9 -11 39 -15 68 -4 29 -11 54 -16 58 -5 3 -9 18 -9 34 0 16 -4 31 -9 34 -5 3 -12 33 -16 66 -4 33 -11 62 -15 65 -4 3 -11 36 -15 75 -4 39 -11 72 -15 75 -4 3 -11 35 -15 72 -4 38 -10 73 -14 78 -6 9 -25 131 -37 235 -3 25 -9 54 -14 65 -5 11 -14 72 -20 135 -6 63 -15 165 -21 225 -13 141 -7 728 8 747 6 7 14 50 18 96 4 45 11 85 16 88 5 3 9 19 9 36 0 51 21 96 49 106 42 15 75 47 68 65 -8 21 -36 22 -65 1 -19 -13 -22 -13 -22 0 0 8 4 17 9 20 5 3 12 30 16 61 3 30 10 57 15 60 4 2 11 26 15 52 4 27 10 53 15 58 4 6 11 26 15 45 4 19 11 40 14 45 7 8 54 150 56 165 5 47 158 358 231 470 28 44 46 69 128 179 132 178 376 349 591 415 43 13 51 13 58 0 8 -14 39 -19 50 -7 4 3 2 12 -4 19 -20 24 19 29 233 29 152 0 211 -4 220 -13 6 -6 23 -12 37 -13 28 0 150 -30 166 -41 6 -3 27 -9 48 -13 20 -4 40 -11 43 -16 3 -5 12 -9 21 -9 18 0 52 -15 198 -85 61 -29 131 -63 157 -75 26 -12 105 -59 174 -106 70 -46 131 -84 136 -84 4 0 8 -4 8 -8 0 -8 45 -42 181 -137 103 -72 461 -399 619 -566 85 -89 167 -174 182 -188 14 -14 50 -55 80 -91 78 -95 88 -108 138 -164 25 -28 59 -69 75 -91 16 -22 36 -47 45 -56 16 -16 62 -77 111 -147 33 -47 61 -62 118 -62 20 0 41 -4 47 -9 5 -4 63 -14 129 -20 66 -7 129 -17 140 -21 20 -8 39 -12 190 -33 44 -7 85 -15 90 -18 6 -4 47 -10 93 -14 45 -4 84 -11 87 -15 3 -4 43 -11 90 -15 47 -4 87 -10 90 -15 3 -4 45 -11 95 -15 50 -4 93 -11 96 -16 3 -5 25 -9 49 -9 24 0 47 -4 50 -10 3 -5 21 -10 38 -10 18 0 46 -7 62 -16 17 -8 52 -18 78 -21 26 -3 50 -10 53 -14 7 -12 121 -12 128 0 3 5 22 12 41 15 48 9 132 93 141 141 3 19 10 38 15 41 12 7 12 271 0 278 -5 3 -12 36 -16 73 -4 38 -10 73 -15 78 -4 6 -11 28 -15 50 -4 22 -10 45 -14 50 -4 6 -16 42 -26 80 -10 39 -21 75 -26 80 -4 6 -10 28 -14 50 -4 22 -11 45 -15 50 -4 6 -11 26 -14 45 -4 19 -11 44 -16 55 -5 11 -16 47 -26 80 -9 33 -20 65 -24 70 -4 6 -13 39 -20 75 -7 36 -16 70 -21 75 -4 6 -10 28 -14 50 -4 22 -11 45 -15 50 -5 6 -11 28 -15 50 -4 22 -11 45 -15 50 -4 6 -11 26 -15 45 -4 19 -11 40 -15 45 -4 6 -11 29 -15 52 -4 24 -11 45 -16 49 -5 3 -9 16 -9 29 0 13 -4 26 -9 29 -5 4 -12 25 -16 49 -4 23 -11 47 -15 52 -4 6 -11 26 -15 45 -4 19 -11 40 -15 45 -4 6 -10 29 -14 53 -3 24 -11 51 -16 60 -5 9 -17 44 -26 77 -10 33 -22 66 -27 73 -14 18 7 15 61 -9 26 -11 56 -24 67 -29 185 -81 337 -168 530 -305 122 -86 336 -317 394 -427 72 -133 111 -214 111 -229 0 -27 26 -42 67 -36 95 12 246 52 320 84 17 7 38 13 46 13 8 0 28 7 43 15 16 8 37 15 46 15 9 0 20 5 23 10 3 6 13 10 22 10 8 0 31 7 51 16 21 9 52 22 70 30 18 8 38 14 44 14 16 0 48 31 48 47 0 11 -42 82 -130 219 -8 13 -33 51 -54 86 -39 62 -70 106 -196 274 -36 48 -72 97 -80 109 -16 25 -119 150 -163 199 -15 17 -53 61 -85 98 -123 145 -461 468 -575 550 -41 30 -147 110 -269 203 -25 19 -50 35 -54 35 -4 0 -15 6 -23 14 -43 38 -482 256 -516 256 -8 0 -16 4 -19 9 -3 4 -19 11 -35 14 -31 6 -34 14 -47 137 -4 30 -10 60 -14 65 -4 6 -11 45 -15 87 -4 43 -10 80 -15 83 -4 3 -11 35 -15 72 -4 36 -11 74 -16 82 -9 18 -30 125 -30 156 0 10 -4 24 -8 30 -5 5 -11 34 -15 63 -4 30 -11 61 -15 70 -10 19 -29 91 -38 137 -3 17 -9 35 -13 40 -5 6 -11 28 -15 50 -4 22 -11 45 -15 50 -5 6 -11 28 -15 50 -4 22 -11 45 -15 50 -4 6 -11 26 -15 45 -4 19 -12 43 -18 55 -21 41 -25 51 -32 85 -4 19 -11 40 -15 45 -4 6 -11 25 -15 43 -4 18 -13 45 -21 60 -8 15 -14 33 -14 40 0 7 -4 20 -10 30 -5 9 -24 53 -41 97 -17 44 -39 99 -50 122 -10 23 -19 46 -19 50 0 8 -171 351 -193 387 -7 11 -34 56 -62 101 -27 44 -54 88 -60 98 -23 37 -118 173 -129 182 -6 6 -27 30 -45 55 -65 84 -130 153 -224 238 -32 28 -52 52 -43 52 8 0 17 -4 20 -9z m-3900 -187 c3 -9 6 -39 6 -68 0 -29 3 -56 8 -60 4 -4 12 -38 19 -74 15 -86 36 -174 44 -187 4 -5 10 -26 14 -45 4 -19 16 -53 25 -75 10 -22 24 -58 30 -80 25 -85 142 -319 209 -420 15 -22 30 -47 34 -55 18 -37 145 -216 191 -268 17 -21 45 -55 61 -77 16 -22 108 -119 205 -215 203 -201 234 -230 249 -230 6 0 11 -5 11 -10 0 -29 535 -398 685 -472 17 -8 71 -37 120 -63 162 -87 404 -205 421 -205 5 0 31 -11 58 -25 27 -14 63 -29 80 -34 74 -23 129 -47 136 -61 4 -8 12 -25 18 -36 6 -12 14 -39 18 -60 3 -22 10 -43 14 -49 4 -5 11 -30 15 -55 4 -25 11 -49 15 -55 4 -5 11 -32 15 -60 4 -27 10 -54 13 -60 6 -9 23 -77 39 -160 3 -16 9 -34 13 -40 12 -15 23 -95 13 -95 -9 0 -94 60 -217 153 -41 31 -80 57 -85 57 -5 0 -14 7 -21 15 -13 16 -174 125 -184 125 -5 0 -90 51 -162 98 -10 6 -29 16 -41 22 -12 5 -39 20 -60 33 -67 42 -155 90 -268 144 -60 30 -118 58 -127 63 -10 6 -22 10 -28 10 -9 0 -109 42 -140 59 -9 5 -30 12 -48 15 -17 4 -34 12 -37 17 -4 5 -13 9 -22 9 -13 0 -63 19 -103 40 -9 4 -31 11 -50 15 -19 4 -39 11 -45 15 -5 4 -30 11 -55 15 -25 4 -49 11 -55 15 -5 5 -36 11 -68 15 -31 4 -59 11 -62 15 -3 5 -40 11 -83 15 -42 4 -81 11 -87 15 -35 28 -515 28 -550 0 -5 -4 -47 -11 -93 -15 -45 -4 -84 -11 -87 -15 -3 -4 -33 -11 -67 -15 -35 -4 -67 -11 -73 -15 -5 -4 -34 -11 -62 -15 -29 -4 -55 -11 -58 -15 -3 -4 -28 -11 -55 -15 -27 -4 -52 -11 -56 -16 -3 -5 -16 -9 -29 -9 -13 0 -26 -4 -29 -9 -3 -5 -21 -12 -40 -15 -20 -4 -48 -13 -63 -21 -15 -8 -36 -15 -46 -15 -9 0 -25 -4 -35 -10 -32 -17 -132 -60 -142 -60 -6 0 -18 -4 -28 -9 -9 -4 -53 -26 -97 -48 -144 -72 -170 -86 -202 -110 -17 -12 -34 -23 -37 -23 -8 0 -121 -79 -236 -165 -110 -82 -306 -273 -419 -409 -62 -74 -161 -210 -161 -220 0 -2 -24 -39 -52 -82 -29 -43 -73 -119 -99 -169 -25 -49 -57 -112 -72 -140 -35 -68 -82 -178 -127 -300 -4 -11 -19 -60 -34 -110 -15 -49 -31 -97 -36 -105 -4 -9 -11 -36 -15 -60 -4 -25 -11 -49 -15 -55 -4 -5 -11 -30 -15 -55 -4 -25 -11 -49 -15 -55 -4 -5 -10 -26 -13 -45 -11 -64 -29 -145 -37 -161 -4 -8 -11 -50 -15 -92 -4 -43 -11 -79 -15 -82 -4 -3 -11 -47 -15 -97 -4 -51 -11 -97 -15 -103 -5 -5 -11 -68 -15 -140 -4 -71 -11 -134 -15 -140 -4 -5 -11 -64 -15 -130 -11 -172 -11 -1006 -1 -1092 8 -69 8 -72 -11 -67 -12 3 -24 1 -28 -6 -8 -13 24 -52 36 -44 5 3 9 -17 9 -45 0 -27 4 -52 9 -55 5 -3 12 -82 16 -176 4 -93 10 -172 15 -175 4 -3 11 -61 15 -130 4 -69 11 -127 15 -130 4 -3 11 -43 15 -90 4 -47 11 -87 16 -91 5 -3 9 -15 9 -27 0 -28 29 -167 40 -187 4 -9 11 -39 15 -68 4 -29 11 -54 15 -57 5 -3 12 -30 15 -60 4 -31 11 -58 16 -60 4 -3 11 -26 15 -50 3 -25 10 -48 15 -51 5 -3 9 -16 9 -29 0 -13 5 -27 10 -30 6 -3 10 -16 10 -28 1 -23 53 -183 64 -194 3 -3 6 -13 6 -22 0 -9 7 -29 15 -45 8 -15 15 -33 15 -40 1 -6 9 -29 20 -51 11 -22 19 -45 20 -52 0 -6 9 -28 20 -50 10 -21 29 -60 40 -88 29 -69 50 -114 72 -155 24 -46 69 -140 104 -215 15 -33 50 -98 78 -145 28 -47 60 -101 70 -120 29 -53 204 -322 285 -438 28 -40 51 -76 51 -81 0 -5 -9 -11 -20 -14 -12 -3 -20 -14 -20 -26 0 -12 -4 -21 -10 -21 -39 0 -63 -18 -56 -43 6 -25 -12 -52 -34 -52 -17 0 -17 -60 1 -81 15 -18 4 -31 -25 -31 -24 0 -24 0 -9 24 15 22 15 26 0 40 -13 14 -21 14 -42 5 -21 -10 -26 -18 -23 -40 2 -15 9 -28 16 -28 6 -1 15 -2 19 -3 3 0 -2 -10 -12 -21 -14 -16 -16 -23 -7 -32 18 -18 15 -35 -7 -41 -15 -4 -18 -14 -18 -66 0 -52 3 -63 23 -75 19 -13 24 -13 34 -1 10 12 10 18 -1 31 -11 13 -9 14 15 8 22 -5 28 -3 33 15 4 14 12 20 29 19 13 -1 24 -8 24 -15 0 -16 38 -36 56 -29 8 3 14 12 14 20 0 7 10 16 21 19 16 4 20 11 16 28 -3 12 0 30 6 40 9 15 9 24 -1 39 -18 29 -15 43 16 73 19 18 32 23 42 17 8 -5 18 -6 22 -4 14 9 9 54 -7 60 -15 6 -21 59 -7 68 4 2 57 -57 117 -132 218 -270 571 -634 815 -840 63 -53 119 -103 123 -110 4 -6 12 -12 16 -12 8 0 23 -11 110 -86 20 -17 54 -44 76 -60 21 -16 47 -37 57 -46 9 -9 50 -38 90 -65 98 -63 278 -193 278 -199 0 -6 -34 3 -65 16 -11 5 -42 16 -70 25 -27 10 -64 24 -82 31 -17 8 -38 14 -46 14 -9 0 -19 5 -22 10 -3 6 -14 10 -23 10 -9 0 -30 7 -46 15 -15 8 -33 15 -38 15 -6 0 -24 6 -41 14 -18 8 -63 26 -102 41 -38 14 -88 34 -110 45 -22 10 -76 35 -120 55 -44 20 -89 41 -100 47 -11 6 -69 37 -130 68 -60 31 -128 67 -150 80 -22 12 -72 40 -110 60 -39 21 -111 63 -160 94 -50 31 -99 62 -109 69 -21 12 -84 55 -246 165 -95 65 -232 169 -325 248 -45 39 -135 113 -160 132 -78 60 -440 415 -528 517 -33 39 -90 104 -128 145 -71 79 -99 114 -258 325 -94 125 -231 322 -231 332 0 3 -10 19 -23 36 -24 35 -42 64 -53 87 -4 8 -17 29 -29 45 -12 17 -25 37 -29 45 -4 8 -13 26 -21 40 -8 14 -12 34 -9 46 6 22 -16 47 -37 42 -7 -2 -14 5 -16 14 -7 29 35 9 69 -33 23 -28 37 -37 57 -35 20 1 26 7 25 23 -1 24 8 22 42 -9 20 -18 21 -18 42 5 13 14 21 34 20 48 -3 21 1 24 24 21 20 -2 32 4 45 24 16 25 16 27 -2 40 -10 8 -22 14 -26 14 -3 0 -9 12 -12 28 -4 17 -27 44 -67 76 -61 49 -90 54 -90 16 0 -12 -15 -30 -40 -46 -37 -25 -39 -29 -34 -64 7 -43 -9 -61 -26 -30 -11 20 -13 20 -35 6 -23 -15 -25 -14 -43 12 -28 40 -242 483 -242 500 0 6 -6 23 -14 39 -8 15 -22 46 -31 68 -9 22 -25 57 -36 78 -10 22 -19 43 -19 49 0 5 -6 24 -14 41 -8 18 -20 55 -26 82 -7 28 -17 55 -21 60 -4 6 -10 27 -14 48 -4 20 -11 39 -15 42 -5 3 -11 23 -15 45 -4 22 -10 42 -15 45 -5 3 -11 24 -15 48 -4 23 -10 47 -14 52 -4 6 -16 39 -25 75 -10 36 -22 74 -27 85 -4 11 -11 40 -15 65 -3 25 -10 50 -14 55 -4 6 -11 35 -15 65 -4 30 -11 61 -16 70 -7 14 -22 82 -36 170 -3 19 -9 40 -13 45 -4 6 -11 46 -15 90 -4 44 -11 85 -15 90 -4 6 -13 80 -20 165 -6 85 -16 163 -21 172 -5 10 -12 121 -16 248 -3 127 -10 233 -15 236 -11 7 -10 311 1 319 5 3 12 1 16 -5 4 -6 13 -7 24 -1 9 5 26 9 36 8 12 -1 20 4 20 13 0 8 17 23 38 33 28 13 37 24 37 43 0 13 -7 27 -15 30 -12 5 -13 10 -4 20 6 8 9 21 5 29 -4 11 -11 13 -30 5 -21 -8 -28 -6 -35 9 -6 10 -24 21 -41 25 -19 3 -29 10 -25 16 4 6 3 19 -1 28 -10 23 -4 215 7 227 5 5 9 32 9 60 1 85 45 393 70 495 6 25 15 72 21 105 5 33 13 67 18 76 5 9 12 41 16 73 4 31 11 58 15 61 5 3 11 28 15 55 4 27 11 52 16 56 5 3 9 15 9 27 0 20 21 92 41 142 4 11 11 36 15 55 3 19 10 40 14 45 4 6 11 26 15 45 4 19 11 40 15 45 4 6 11 26 15 45 4 19 11 41 16 50 4 8 18 47 29 85 12 39 29 86 37 105 8 19 19 44 23 55 5 11 16 38 25 60 9 22 25 58 36 81 10 23 19 45 19 49 0 23 259 538 313 622 15 24 27 47 27 52 0 5 6 14 14 20 8 7 22 26 31 44 9 18 35 62 58 99 23 37 64 102 91 145 27 43 66 99 87 125 22 26 39 49 39 52 0 9 105 150 124 165 9 7 16 18 16 23 0 5 25 39 56 76 31 37 61 74 68 82 88 110 246 281 400 435 255 253 453 426 655 571 45 31 81 61 81 66 0 4 5 8 10 8 6 0 43 24 83 53 115 85 206 147 215 147 5 0 28 14 50 30 23 17 46 30 51 30 5 0 14 6 20 14 7 8 31 24 54 35 23 12 51 27 62 34 93 58 195 115 305 168 177 85 266 127 305 144 22 9 65 28 95 42 30 14 64 29 75 34 11 4 41 17 67 28 26 12 54 21 62 21 8 0 18 5 21 10 9 15 22 12 29 -6z"/>
 <path d="M7197 9923 c-11 -10 -8 -41 5 -49 17 -11 40 26 27 43 -13 14 -22 16 -32 6z"/>
 <path d="M7545 9750 c-14 -15 -16 -23 -7 -32 13 -13 42 6 42 28 0 22 -17 24 -35 4z"/>
 <path d="M8253 9633 c-7 -18 33 -57 48 -47 16 9 10 43 -10 54 -26 14 -31 13 -38 -7z"/>
 <path d="M7195 9591 c-7 -12 12 -24 25 -16 11 7 4 25 -10 25 -5 0 -11 -4 -15 -9z"/>
 <path d="M13725 9371 c-3 -6 -4 -24 -1 -39 4 -15 7 -91 8 -170 1 -79 6 -146 10 -148 12 -7 10 -52 -2 -59 -7 -4 -8 -11 -1 -18 5 -7 12 -77 15 -157 3 -80 7 -190 9 -245 3 -55 7 -107 10 -115 4 -8 9 -69 12 -135 6 -137 9 -167 17 -181 4 -5 7 -32 7 -59 1 -28 1 -58 2 -69 0 -27 -9 -32 -24 -12 -19 26 -67 6 -67 -30 0 -16 6 -28 18 -31 10 -2 22 -14 27 -26 6 -12 19 -22 30 -22 26 0 49 -48 49 -106 1 -37 -2 -45 -15 -42 -10 3 -14 12 -12 27 6 28 -16 46 -42 36 -19 -7 -21 -16 -20 -80 2 -66 0 -74 -27 -102 l-29 -31 20 -21 c29 -31 81 -49 87 -31 7 19 34 7 34 -14 0 -10 11 -28 25 -41 14 -13 25 -27 25 -32 0 -5 -11 -13 -25 -18 -17 -7 -25 -17 -25 -34 0 -14 -5 -28 -10 -31 -8 -5 -7 -11 0 -20 9 -11 4 -14 -27 -17 -26 -2 -38 -8 -38 -18 0 -11 12 -15 45 -15 35 0 45 4 45 17 0 9 3 19 7 23 9 9 21 -32 13 -45 -4 -6 -2 -16 3 -23 5 -7 12 -27 16 -46 5 -29 4 -32 -12 -26 -26 11 -122 14 -128 3 -3 -5 -1 -15 5 -22 6 -7 9 -21 5 -30 -9 -23 26 -34 41 -13 7 10 24 17 38 17 14 0 29 6 34 13 5 7 10 -3 13 -28 3 -22 10 -39 17 -38 17 3 27 -49 11 -58 -43 -25 -53 -38 -40 -51 10 -10 17 -10 32 0 23 14 24 12 41 -55 14 -56 9 -73 -15 -54 -8 7 -20 10 -26 6 -6 -4 -20 1 -30 10 -25 23 -43 11 -27 -18 24 -43 41 -57 69 -57 16 0 27 -4 24 -9 -3 -5 1 -14 9 -21 21 -17 19 -39 -7 -59 -22 -18 -18 -41 7 -41 7 0 16 -8 19 -17 2 -10 8 -29 11 -42 7 -23 7 -23 -16 -7 -27 18 -65 21 -74 5 -4 -6 3 -21 16 -35 23 -25 53 -31 64 -14 11 19 25 -1 25 -35 0 -19 4 -36 9 -39 4 -3 5 -25 0 -48 -6 -35 -4 -46 11 -62 29 -30 47 -14 55 51 4 32 12 64 18 72 13 16 20 688 7 696 -4 2 -5 26 -2 53 2 31 0 52 -7 56 -6 4 -11 25 -11 46 0 29 -6 43 -26 59 -21 17 -26 30 -31 90 -3 41 -12 76 -19 82 -8 6 -14 20 -14 30 0 10 -4 20 -9 23 -4 3 -11 33 -15 66 -4 33 -13 71 -20 86 -8 15 -12 41 -9 63 3 23 1 41 -6 45 -14 9 -14 49 0 63 16 16 3 43 -21 43 -17 0 -19 3 -8 19 9 15 9 25 1 43 -7 13 -15 50 -18 83 -4 33 -11 65 -16 71 -5 6 -6 14 -2 17 3 4 0 9 -8 12 -10 4 -14 26 -14 86 0 44 -4 83 -8 86 -4 3 -3 11 3 18 6 8 7 16 2 19 -5 3 -8 18 -6 33 1 15 -2 33 -7 40 -7 8 -7 18 0 32 8 13 8 22 1 26 -6 4 -8 11 -4 16 3 5 18 2 35 -8 32 -19 59 -7 43 19 -5 7 -10 42 -11 78 -7 193 -13 220 -47 207 -13 -5 -16 -27 -16 -132 0 -70 -4 -124 -8 -121 -5 3 -7 30 -5 60 1 31 -2 58 -8 61 -7 5 -6 11 2 21 8 10 9 25 2 51 -5 21 -8 61 -7 88 1 28 -3 56 -8 63 -7 8 -7 17 2 27 9 11 9 19 2 28 -7 8 -13 75 -16 157 -4 135 -6 144 -29 168 -16 16 -27 20 -32 13z m84 -1750 c9 -6 6 -8 -13 -8 -14 0 -23 3 -20 8 7 11 15 11 33 0z m51 -65 c0 -8 -4 -17 -9 -21 -12 -7 -24 12 -16 25 9 15 25 12 25 -4z"/>
 <path d="M8107 9213 c-12 -11 -8 -50 7 -62 10 -9 18 -7 35 6 20 17 21 19 6 41 -16 22 -35 28 -48 15z"/>
 <path d="M13665 8981 c-7 -12 12 -24 25 -16 11 7 4 25 -10 25 -5 0 -11 -4 -15 -9z"/>
 <path d="M13545 8740 c-4 -6 -3 -16 3 -22 6 -6 12 -6 17 2 4 6 3 16 -3 22 -6 6 -12 6 -17 -2z"/>
 <path d="M13464 8569 c-10 -17 13 -36 27 -22 12 12 4 33 -11 33 -5 0 -12 -5 -16 -11z"/>
 <path d="M6371 8461 c-31 -8 -39 -31 -13 -38 17 -4 18 -9 9 -36 -5 -18 -11 -37 -13 -44 -1 -6 -12 -9 -22 -6 -42 10 -85 -42 -52 -62 8 -5 7 -11 0 -21 -20 -23 45 -97 85 -99 6 0 11 -13 13 -30 2 -16 8 -34 13 -39 17 -18 9 -28 -16 -22 -35 9 -48 0 -34 -26 8 -15 18 -19 41 -16 34 5 76 -25 70 -50 -4 -17 26 -52 43 -52 7 0 19 7 26 16 7 9 24 20 36 25 29 11 40 36 25 59 -8 13 -7 21 5 33 16 16 15 21 -17 75 -11 18 -18 38 -14 43 10 17 -37 60 -58 53 -24 -7 -23 10 1 33 11 10 21 34 23 53 2 29 0 35 -17 35 -15 0 -20 7 -20 27 0 17 -13 38 -38 62 -21 20 -41 36 -45 35 -4 -1 -18 -4 -31 -8z m-41 -221 c-1 -12 -4 -11 -15 4 -8 10 -12 23 -8 29 7 11 23 -12 23 -33z"/>
 <path d="M8685 8450 c-4 -7 -3 -16 3 -22 14 -14 47 -6 47 12 0 18 -40 26 -50 10z"/>
 <path d="M13324 8449 c-10 -17 13 -36 27 -22 12 12 4 33 -11 33 -5 0 -12 -5 -16 -11z"/>
 <path d="M8769 8411 c-17 -13 -29 -16 -41 -10 -21 11 -74 1 -90 -18 -9 -11 -9 -19 0 -34 10 -15 9 -19 0 -20 -7 -1 -21 -2 -32 -3 -27 -2 -44 -32 -30 -53 7 -10 19 -17 28 -17 24 2 21 -42 -4 -49 -24 -6 -26 -30 -4 -48 12 -9 20 -10 33 -2 13 8 23 7 41 -7 23 -17 81 -20 123 -6 9 3 23 8 30 10 10 3 13 26 12 93 -2 82 -4 88 -23 86 -11 -1 -23 4 -26 12 -3 10 1 15 13 15 42 0 56 62 15 68 -11 2 -31 -6 -45 -17z"/>
 <path d="M13863 8324 c-8 -21 13 -42 28 -27 13 13 5 43 -11 43 -6 0 -13 -7 -17 -16z"/>
 <path d="M7316 8311 c-3 -4 0 -16 7 -25 12 -16 14 -16 26 -2 7 8 10 20 6 26 -8 12 -32 13 -39 1z"/>
 <path d="M13605 8311 c-7 -12 12 -24 25 -16 11 7 4 25 -10 25 -5 0 -11 -4 -15 -9z"/>
 <path d="M6548 8299 c-22 -13 -23 -52 -2 -70 14 -11 18 -10 31 6 15 22 14 67 -2 71 -5 2 -18 -1 -27 -7z"/>
 <path d="M9244 8297 c-7 -20 3 -37 21 -37 23 0 26 16 5 35 -18 16 -20 16 -26 2z"/>
 <path d="M13587 8223 c-26 -18 -34 -29 -27 -38 6 -7 6 -15 -1 -22 -13 -13 -3 -33 16 -33 16 0 38 34 28 43 -3 4 11 16 32 28 35 21 36 23 19 36 -23 17 -22 17 -67 -14z"/>
 <path d="M13380 8180 c-9 -16 -8 -22 5 -26 21 -8 39 10 32 30 -9 22 -24 20 -37 -4z"/>
 <path d="M13631 8176 c-8 -10 -7 -17 3 -25 8 -7 13 -18 10 -26 -9 -21 16 -28 36 -10 17 16 18 19 4 40 -19 30 -40 37 -53 21z"/>
 <path d="M13571 8096 c-10 -12 -10 -22 -2 -41 15 -34 23 -35 34 -2 7 22 6 33 -5 43 -13 13 -16 13 -27 0z"/>
 <path d="M8380 8084 c-9 -10 -10 -18 -2 -26 12 -12 32 -2 32 17 0 21 -16 26 -30 9z"/>
 <path d="M13701 8049 c-17 -17 -31 -34 -31 -39 0 -15 20 -22 34 -11 9 7 16 7 25 -2 10 -9 15 -8 26 7 8 10 12 22 10 27 -3 4 -1 11 5 14 8 5 7 11 -1 21 -17 21 -34 17 -68 -17z"/>
 <path d="M13475 8050 c-4 -7 -3 -16 3 -22 14 -14 47 -6 47 12 0 18 -40 26 -50 10z"/>
 <path d="M13275 8040 c-10 -16 16 -43 28 -31 11 11 2 41 -12 41 -5 0 -13 -5 -16 -10z"/>
 <path d="M13539 7974 c-12 -14 -9 -20 15 -41 25 -21 31 -22 43 -10 10 10 11 20 4 40 -12 31 -41 36 -62 11z"/>
 <path d="M13626 7961 c-3 -5 0 -14 8 -20 10 -8 16 -8 25 2 6 8 8 17 4 20 -9 10 -31 9 -37 -2z"/>
 <path d="M13421 7946 c-9 -10 -8 -16 4 -26 13 -11 19 -11 32 2 16 17 10 38 -11 38 -8 0 -19 -6 -25 -14z"/>
 <path d="M8603 7924 c-8 -21 13 -42 28 -27 13 13 5 43 -11 43 -6 0 -13 -7 -17 -16z"/>
 <path d="M13115 7930 c-11 -18 13 -36 31 -25 9 6 16 15 17 20 3 14 -40 18 -48 5z"/>
 <path d="M6538 7918 c-12 -10 -14 -19 -7 -35 10 -27 31 -30 49 -7 11 12 10 18 -6 35 -16 16 -23 17 -36 7z"/>
 <path d="M13662 7917 c-14 -16 20 -63 37 -53 8 6 9 12 2 20 -6 7 -9 15 -6 18 3 3 -1 10 -8 17 -11 8 -17 8 -25 -2z"/>
 <path d="M12825 7900 c-4 -6 -3 -16 3 -22 6 -6 12 -6 17 2 4 6 3 16 -3 22 -6 6 -12 6 -17 -2z"/>
 <path d="M13356 7881 c-3 -5 1 -14 8 -20 16 -13 32 2 21 19 -8 12 -22 13 -29 1z"/>
 <path d="M13414 7875 c-10 -25 12 -40 56 -38 l42 1 -21 -22 c-23 -24 -19 -36 12 -36 10 0 21 9 24 20 5 20 13 24 45 21 16 -2 51 53 40 63 -6 7 -53 -4 -68 -15 -7 -6 -23 -3 -40 6 -37 19 -83 19 -90 0z"/>
 <path d="M13730 7835 c-8 -22 -13 -24 -30 -15 -28 15 -43 4 -29 -21 8 -16 19 -19 56 -17 53 3 76 26 57 56 -18 28 -43 27 -54 -3z"/>
 <path d="M13271 7832 c-8 -15 -7 -23 5 -33 18 -15 38 0 32 27 -5 25 -25 28 -37 6z"/>
 <path d="M13586 7791 c-3 -5 1 -14 8 -20 16 -13 32 2 21 19 -8 12 -22 13 -29 1z"/>
 <path d="M13296 7773 c-4 -5 -19 -8 -33 -8 -15 0 -28 -6 -30 -12 -6 -16 45 -37 61 -24 6 5 25 7 43 5 36 -4 51 10 33 32 -9 10 -16 11 -25 4 -9 -8 -15 -8 -20 0 -7 12 -19 13 -29 3z"/>
 <path d="M8497 7741 c-11 -16 -22 -19 -63 -16 -53 5 -115 -12 -141 -37 -17 -18 -10 -38 13 -38 21 0 17 -18 -7 -30 -26 -15 -22 -55 6 -55 15 0 21 -8 23 -30 2 -16 9 -34 16 -40 7 -5 15 -18 19 -27 7 -21 57 -24 75 -6 9 9 8 15 -3 28 -14 15 -13 17 7 16 18 -1 22 4 21 22 -3 23 11 30 22 12 10 -16 35 8 35 33 0 11 -10 31 -22 44 -20 22 -21 24 -4 36 9 7 18 20 20 29 1 9 13 25 26 36 13 11 20 24 16 30 -11 18 -43 14 -59 -7z"/>
 <path d="M13420 7745 c-10 -12 -9 -16 5 -21 19 -8 40 9 31 25 -10 15 -21 14 -36 -4z"/>
 <path d="M13562 7744 c-23 -16 -29 -39 -13 -49 5 -3 22 5 36 18 23 19 25 25 13 35 -11 9 -19 8 -36 -4z"/>
 <path d="M13675 7741 c-7 -12 12 -24 25 -16 11 7 4 25 -10 25 -5 0 -11 -4 -15 -9z"/>
 <path d="M13464 7725 c-4 -9 -2 -21 4 -27 16 -16 47 -5 47 17 0 26 -42 34 -51 10z"/>
 <path d="M13385 7711 c-7 -12 12 -24 25 -16 11 7 4 25 -10 25 -5 0 -11 -4 -15 -9z"/>
 <path d="M13602 7698 c-7 -7 -12 -16 -12 -21 0 -14 43 -57 58 -57 7 0 11 -4 8 -9 -8 -13 21 -34 39 -27 21 8 19 27 -4 33 -13 3 -18 10 -14 20 4 9 0 21 -8 27 -9 6 -18 19 -22 29 -7 20 -28 22 -45 5z"/>
 <path d="M13704 7699 c-10 -17 13 -36 27 -22 12 12 4 33 -11 33 -5 0 -12 -5 -16 -11z"/>
 <path d="M13334 7689 c-3 -6 0 -17 8 -25 13 -13 16 -13 27 0 7 8 10 20 6 26 -8 13 -32 13 -41 -1z"/>
 <path d="M13365 7650 c-14 -16 -16 -23 -6 -33 15 -15 46 3 46 28 0 26 -19 29 -40 5z"/>
 <path d="M13555 7640 c-4 -7 -3 -16 3 -22 14 -14 45 -2 40 15 -6 16 -34 21 -43 7z"/>
 <path d="M13480 7625 c-10 -13 -7 -17 25 -31 28 -11 41 -12 49 -4 8 8 4 16 -14 30 -30 24 -44 25 -60 5z"/>
 <path d="M13576 7570 c-28 -30 -28 -30 -10 -58 11 -15 19 -36 19 -47 0 -31 30 -25 31 7 1 15 7 34 14 43 10 12 9 16 -4 21 -9 3 -13 10 -10 16 4 5 11 5 19 -2 9 -7 16 -6 26 6 11 14 10 18 -6 30 -28 21 -47 17 -79 -16z"/>
 <path d="M13264 7559 c-3 -6 -1 -16 4 -21 13 -13 45 8 36 23 -7 12 -31 11 -40 -2z"/>
 <path d="M13494 7546 c-3 -8 -13 -12 -23 -9 -20 5 -46 -21 -36 -37 9 -15 35 -12 42 6 3 8 11 13 19 10 16 -6 38 19 29 34 -9 14 -25 13 -31 -4z"/>
 <path d="M12425 7520 c-10 -17 12 -37 25 -24 8 8 6 15 -4 23 -10 9 -16 9 -21 1z"/>
 <path d="M13311 7516 c-9 -10 -8 -16 3 -25 10 -9 16 -8 25 3 9 10 8 16 -3 25 -10 9 -16 8 -25 -3z"/>
 <path d="M12134 7499 c-10 -17 13 -36 27 -22 12 12 4 33 -11 33 -5 0 -12 -5 -16 -11z"/>
 <path d="M13725 7460 c-10 -17 12 -37 25 -24 8 8 6 15 -4 23 -10 9 -16 9 -21 1z"/>
 <path d="M13443 7444 c-8 -21 13 -42 28 -27 13 13 5 43 -11 43 -6 0 -13 -7 -17 -16z"/>
 <path d="M13054 7439 c-10 -17 13 -36 27 -22 12 12 4 33 -11 33 -5 0 -12 -5 -16 -11z"/>
 <path d="M13327 7424 c-4 -4 -3 -12 1 -18 4 -6 7 -31 7 -56 0 -38 3 -45 20 -45 17 0 20 7 20 40 1 54 -27 99 -48 79z"/>
 <path d="M7444 7409 c-10 -17 13 -36 27 -22 12 12 4 33 -11 33 -5 0 -12 -5 -16 -11z"/>
 <path d="M13584 7409 c-10 -17 13 -36 27 -22 12 12 4 33 -11 33 -5 0 -12 -5 -16 -11z"/>
 <path d="M13214 7365 c-15 -10 -16 -16 -7 -26 14 -15 43 -5 43 15 0 22 -15 27 -36 11z"/>
 <path d="M12714 7336 c-4 -10 -2 -22 4 -28 8 -8 13 -7 18 6 4 10 2 22 -4 28 -8 8 -13 7 -18 -6z"/>
 <path d="M13280 7335 c-13 -15 -7 -45 8 -45 16 0 34 29 28 45 -7 19 -20 19 -36 0z"/>
 <path d="M13467 7334 c-30 -16 -35 -32 -13 -40 19 -7 56 13 56 31 0 22 -13 24 -43 9z"/>
 <path d="M13604 7319 c-10 -17 13 -36 27 -22 12 12 4 33 -11 33 -5 0 -12 -5 -16 -11z"/>
 <path d="M6136 7291 c-18 -19 -16 -51 2 -51 5 0 17 9 27 20 17 18 17 22 4 36 -14 13 -17 12 -33 -5z"/>
 <path d="M13233 7284 c-8 -21 13 -42 28 -27 13 13 5 43 -11 43 -6 0 -13 -7 -17 -16z"/>
 <path d="M13551 7283 c-11 -23 -9 -64 4 -61 6 2 10 8 10 15 0 7 9 19 19 26 20 15 14 37 -9 37 -8 0 -18 -8 -24 -17z"/>
 <path d="M13174 7269 c-10 -17 13 -36 27 -22 12 12 4 33 -11 33 -5 0 -12 -5 -16 -11z"/>
 <path d="M13447 7274 c-4 -4 -2 -13 5 -21 9 -12 7 -13 -14 -8 -19 5 -29 2 -36 -10 -8 -16 -10 -16 -15 -1 -6 16 -42 22 -51 8 -8 -13 22 -70 43 -82 25 -13 45 -4 37 17 -5 12 -1 14 16 10 27 -7 108 57 92 72 -13 13 -69 23 -77 15z"/>
 <path d="M13085 7260 c-4 -6 -3 -16 3 -22 6 -6 12 -6 17 2 4 6 3 16 -3 22 -6 6 -12 6 -17 -2z"/>
 <path d="M13275 7259 c-4 -5 0 -18 8 -27 8 -9 12 -22 10 -29 -6 -16 17 -27 29 -15 8 8 8 15 0 25 -8 10 -8 17 -1 24 6 6 8 16 5 22 -9 14 -43 14 -51 0z"/>
 <path d="M13004 7229 c-10 -17 13 -36 27 -22 12 12 4 33 -11 33 -5 0 -12 -5 -16 -11z"/>
 <path d="M13625 7230 c-4 -6 -1 -17 5 -26 10 -11 16 -12 26 -3 11 9 11 15 3 25 -14 17 -25 18 -34 4z"/>
 <path d="M13693 7224 c-9 -23 13 -40 32 -24 12 10 13 16 4 26 -15 18 -28 18 -36 -2z"/>
 <path d="M13099 7215 c-1 -3 -2 -11 -3 -17 -1 -8 -12 -12 -29 -10 -18 2 -29 -2 -33 -13 -7 -18 22 -55 44 -55 12 0 12 -3 2 -15 -10 -12 -10 -18 0 -30 17 -20 37 -19 49 2 7 13 5 23 -6 35 -9 10 -13 18 -10 18 3 0 15 -10 26 -22 18 -18 21 -19 27 -5 3 9 -3 29 -15 45 -14 21 -17 32 -9 40 14 14 1 32 -23 32 -10 0 -20 -2 -20 -5z"/>
 <path d="M6693 7194 c-9 -23 11 -38 26 -20 13 16 7 36 -10 36 -5 0 -12 -7 -16 -16z"/>
 <path d="M12745 7200 c-10 -16 16 -43 28 -31 11 11 2 41 -12 41 -5 0 -13 -5 -16 -10z"/>
 <path d="M13482 7184 c-28 -17 -42 -32 -40 -42 4 -22 46 -28 54 -8 3 9 12 16 19 16 6 0 19 8 28 18 13 14 14 21 5 30 -16 16 -16 16 -66 -14z"/>
 <path d="M12881 7166 c-8 -10 -9 -16 -1 -21 6 -4 8 -15 5 -26 -5 -14 1 -22 22 -31 15 -6 38 -21 50 -31 20 -18 23 -18 29 -4 3 8 4 26 2 39 -2 17 -10 23 -30 23 -33 1 -42 9 -43 37 0 26 -18 34 -34 14z"/>
 <path d="M13175 7161 c-5 -9 40 -51 56 -51 18 0 18 21 -1 40 -21 21 -45 26 -55 11z"/>
 <path d="M8724 7139 c-10 -17 13 -36 27 -22 12 12 4 33 -11 33 -5 0 -12 -5 -16 -11z"/>
 <path d="M13301 7116 c-7 -9 -11 -21 -8 -28 2 -7 -2 -20 -10 -29 -13 -15 -11 -19 16 -32 24 -12 32 -12 41 -3 7 9 4 18 -9 31 -16 14 -18 20 -8 36 16 25 -4 47 -22 25z"/>
 <path d="M13636 7105 c-10 -15 -16 -33 -14 -42 4 -22 89 -66 102 -53 15 15 -6 45 -30 45 -15 0 -19 8 -19 34 0 43 -17 50 -39 16z"/>
 <path d="M7374 7105 c-8 -20 4 -35 26 -35 25 0 35 17 20 35 -16 19 -39 19 -46 0z"/>
 <path d="M13410 7079 c-15 -27 -6 -49 20 -49 11 0 23 6 26 14 6 17 -12 56 -26 56 -5 0 -14 -9 -20 -21z"/>
 <path d="M11034 7076 c-9 -24 12 -44 28 -28 10 10 8 16 -5 29 -15 15 -17 15 -23 -1z"/>
 <path d="M13565 7060 c-9 -15 3 -30 24 -30 25 0 33 11 20 27 -13 15 -35 17 -44 3z"/>
 <path d="M13780 7055 c-15 -18 20 -43 57 -41 40 2 47 9 34 35 -9 15 -20 20 -46 19 -20 -1 -40 -7 -45 -13z"/>
 <path d="M13014 7045 c-8 -20 4 -35 26 -35 25 0 35 17 20 35 -16 19 -39 19 -46 0z"/>
 <path d="M13467 7044 c-4 -4 -7 -18 -7 -30 0 -13 -4 -26 -10 -29 -15 -10 -12 -45 5 -51 10 -4 13 -13 10 -24 -7 -23 11 -35 22 -15 8 13 13 13 47 -5 l38 -19 33 24 c17 14 39 25 48 25 44 0 19 52 -30 65 -31 7 -53 -9 -36 -26 13 -13 6 -39 -11 -39 -6 0 -17 9 -24 20 -7 11 -20 20 -29 20 -14 0 -14 2 2 20 11 12 15 26 10 37 -6 17 -7 17 -21 -2 -14 -19 -14 -19 -12 5 3 24 -20 39 -35 24z"/>
 <path d="M13223 7030 c-13 -5 -23 -17 -23 -26 0 -9 -7 -22 -17 -29 -9 -7 -13 -17 -9 -23 11 -18 36 -14 43 5 4 9 18 27 31 38 15 13 22 27 18 33 -8 14 -13 14 -43 2z"/>
 <path d="M12953 7014 c-8 -21 13 -42 28 -27 13 13 5 43 -11 43 -6 0 -13 -7 -17 -16z"/>
 <path d="M13283 6974 c-3 -8 -1 -20 6 -27 16 -16 14 -27 -4 -21 -8 4 -22 3 -31 0 -13 -5 -14 -9 -4 -22 7 -8 20 -12 28 -9 8 3 21 0 29 -7 18 -15 43 -19 57 -10 6 4 20 7 31 7 11 0 20 7 20 15 0 8 -9 15 -20 16 -11 1 -32 2 -47 3 -32 1 -37 16 -8 24 28 7 25 26 -6 37 -35 14 -44 13 -51 -6z"/>
 <path d="M13746 6965 c-18 -27 -14 -45 10 -45 16 0 38 46 28 61 -9 15 -21 10 -38 -16z"/>
 <path d="M12695 6970 c-11 -18 10 -32 41 -28 40 4 38 32 -3 36 -17 2 -34 -2 -38 -8z"/>
 <path d="M12965 6950 c-4 -6 -3 -16 3 -22 6 -6 12 -6 17 2 4 6 3 16 -3 22 -6 6 -12 6 -17 -2z"/>
 <path d="M11263 6934 c-8 -21 13 -42 28 -27 13 13 5 43 -11 43 -6 0 -13 -7 -17 -16z"/>
 <path d="M12834 6939 c-3 -6 0 -17 8 -25 13 -13 16 -13 27 0 7 8 10 20 6 26 -8 13 -32 13 -41 -1z"/>
 <path d="M13005 6916 c-17 -12 -17 -16 -6 -30 13 -15 16 -15 37 5 36 34 10 55 -31 25z"/>
 <path d="M7341 6906 c-9 -10 -8 -16 4 -26 21 -17 51 6 34 26 -6 8 -15 14 -19 14 -4 0 -13 -6 -19 -14z"/>
 <path d="M12553 6900 c-26 -10 -30 -32 -10 -49 11 -8 19 -5 36 13 13 14 20 29 16 35 -7 13 -12 13 -42 1z"/>
 <path d="M13096 6892 c-3 -5 6 -19 19 -32 21 -19 27 -21 40 -10 13 11 14 16 3 26 -18 17 -55 27 -62 16z"/>
 <path d="M13610 6888 c-31 -11 -32 -26 -3 -42 15 -8 24 -15 20 -16 -5 0 -17 5 -28 11 -12 6 -28 8 -37 4 -13 -5 -11 -10 13 -30 20 -15 34 -20 42 -14 7 7 13 6 17 0 4 -6 19 -6 42 1 20 5 46 7 57 4 34 -9 49 11 30 40 -8 13 -21 24 -27 24 -7 0 -18 6 -24 12 -14 14 -72 17 -102 6z"/>
 <path d="M13421 6876 c-9 -10 -8 -16 4 -26 13 -11 19 -11 32 2 16 17 10 38 -11 38 -8 0 -19 -6 -25 -14z"/>
 <path d="M6774 6846 c-26 -20 -8 -48 37 -58 62 -12 74 28 16 57 -36 18 -29 18 -53 1z"/>
 <path d="M11477 6853 c-24 -23 12 -55 38 -33 12 10 13 16 4 26 -12 15 -31 18 -42 7z"/>
 <path d="M12260 6845 c-20 -24 4 -45 26 -24 13 14 13 17 1 27 -11 10 -17 9 -27 -3z"/>
 <path d="M12391 6846 c-9 -10 -8 -16 3 -25 10 -9 16 -8 25 3 9 10 8 16 -3 25 -10 9 -16 8 -25 -3z"/>
 <path d="M7193 6835 c-6 -18 23 -55 43 -55 24 0 26 22 3 46 -26 28 -37 30 -46 9z"/>
 <path d="M12505 6810 c-8 -12 20 -24 35 -15 6 3 8 11 5 16 -8 12 -32 12 -40 -1z"/>
 <path d="M13444 6805 c-9 -22 3 -46 25 -52 13 -3 20 -17 25 -49 8 -61 23 -89 41 -74 9 8 15 8 20 0 9 -14 28 -13 50 4 17 12 18 16 5 32 -14 17 -14 18 2 6 20 -16 40 -7 36 16 -3 18 -42 23 -76 11 -36 -14 -45 -1 -21 32 26 37 22 73 -9 77 -13 2 -25 -3 -28 -12 -3 -9 -11 -16 -16 -16 -7 0 -6 5 1 13 6 8 8 17 4 20 -12 13 -54 7 -59 -8z"/>
 <path d="M13817 6813 c-14 -13 -6 -34 16 -43 12 -6 30 -15 39 -22 14 -10 20 -10 29 -1 10 10 8 17 -6 33 -10 11 -24 19 -31 16 -7 -3 -15 2 -18 10 -6 15 -18 18 -29 7z"/>
 <path d="M13175 6800 c-10 -17 12 -37 25 -24 8 8 6 15 -4 23 -10 9 -16 9 -21 1z"/>
 <path d="M7414 6788 c-22 -29 0 -86 29 -75 20 8 17 81 -4 85 -9 1 -20 -3 -25 -10z"/>
 <path d="M11668 6779 c-10 -5 -18 -17 -18 -26 0 -9 -8 -21 -17 -28 -15 -11 -15 -15 -4 -29 12 -14 12 -21 1 -42 -12 -21 -11 -27 3 -42 14 -14 21 -14 37 -4 27 16 27 16 26 -18 -1 -16 4 -29 9 -29 6 0 10 9 9 20 0 15 8 21 38 25 21 4 49 17 62 29 14 13 27 21 29 19 2 -3 10 3 17 11 17 20 -3 70 -23 59 -9 -6 -9 -4 1 8 10 12 10 18 -2 27 -7 6 -21 8 -31 5 -11 -5 -21 -1 -27 9 -10 19 -39 22 -55 6 -8 -8 -13 -8 -17 0 -9 13 -16 13 -38 0z"/>
 <path d="M13753 6780 c-26 -11 -30 -32 -9 -49 10 -9 16 -8 26 4 7 8 16 13 20 10 15 -9 22 15 10 30 -14 17 -16 17 -47 5z"/>
 <path d="M6800 6765 c-10 -12 -9 -16 5 -21 19 -8 40 9 31 25 -10 15 -21 14 -36 -4z"/>
 <path d="M11880 6754 c-14 -35 -1 -48 34 -34 20 7 27 16 24 33 -5 34 -45 36 -58 1z"/>
 <path d="M12615 6770 c-4 -6 -3 -16 3 -22 6 -6 12 -6 17 2 4 6 3 16 -3 22 -6 6 -12 6 -17 -2z"/>
 <path d="M12294 6739 c-9 -16 12 -33 31 -25 14 5 15 9 5 21 -15 18 -26 19 -36 4z"/>
 <path d="M13064 6739 c-10 -17 13 -36 27 -22 12 12 4 33 -11 33 -5 0 -12 -5 -16 -11z"/>
 <path d="M7054 6725 c-8 -21 2 -33 37 -40 41 -9 62 10 27 24 -15 5 -29 15 -33 20 -9 15 -25 14 -31 -4z"/>
 <path d="M7225 6729 c-4 -6 -21 -9 -38 -7 -26 2 -32 -1 -32 -17 0 -18 7 -20 59 -20 61 0 79 12 56 40 -15 18 -36 20 -45 4z"/>
 <path d="M7350 6724 c-9 -10 -10 -18 -2 -26 12 -12 32 -2 32 17 0 21 -16 26 -30 9z"/>
 <path d="M13205 6720 c-3 -5 -17 -7 -30 -4 -26 6 -43 -12 -26 -29 15 -15 86 3 86 22 0 18 -21 26 -30 11z"/>
 <path d="M13674 6715 c-9 -23 8 -50 32 -50 27 0 24 34 -3 52 -21 14 -23 14 -29 -2z"/>
 <path d="M13831 6701 c-13 -10 -21 -23 -18 -28 10 -16 88 -13 94 4 13 32 -42 50 -76 24z"/>
 <path d="M6925 6690 c-4 -6 -3 -16 3 -22 6 -6 12 -6 17 2 4 6 3 16 -3 22 -6 6 -12 6 -17 -2z"/>
 <path d="M7286 6681 c-16 -17 -16 -21 -4 -26 21 -8 70 13 66 28 -7 20 -43 19 -62 -2z"/>
 <path d="M12274 6689 c-10 -17 13 -36 27 -22 12 12 4 33 -11 33 -5 0 -12 -5 -16 -11z"/>
 <path d="M12595 6690 c-4 -6 -15 -8 -25 -5 -22 7 -37 -12 -22 -27 14 -14 -32 -52 -53 -45 -20 8 -38 -16 -23 -31 7 -7 19 -12 28 -12 13 -1 13 -2 -1 -10 -23 -13 -25 -98 -2 -107 15 -6 22 0 58 52 l13 20 16 -20 c14 -19 16 -19 33 -2 14 14 15 21 6 37 -8 12 -9 21 -3 25 15 9 12 51 -5 65 -14 11 -13 14 2 25 9 7 14 19 10 29 -7 18 -23 21 -32 6z"/>
 <path d="M13744 6670 c-11 -18 -28 -30 -43 -32 -32 -4 -34 -32 -3 -36 13 -2 27 -14 32 -28 11 -28 38 -32 47 -6 6 14 8 13 13 -7 9 -40 33 -47 69 -22 38 27 32 43 -14 38 -27 -3 -34 0 -39 16 -4 16 -8 18 -18 9 -8 -6 -19 -7 -26 -3 -9 5 -4 16 17 37 22 22 27 33 20 46 -14 26 -36 22 -55 -12z"/>
 <path d="M11907 6659 c-9 -6 -21 -8 -26 -5 -4 3 -17 -1 -27 -9 -15 -11 -16 -16 -7 -26 9 -9 15 -9 26 0 11 9 17 8 27 -4 15 -19 40 -3 40 26 0 23 -11 30 -33 18z"/>
 <path d="M12161 6656 c-7 -8 -10 -20 -7 -25 9 -14 51 3 51 20 0 19 -29 23 -44 5z"/>
 <path d="M12324 6649 c-10 -17 13 -36 27 -22 12 12 4 33 -11 33 -5 0 -12 -5 -16 -11z"/>
 <path d="M12805 6650 c-4 -7 -3 -16 3 -22 14 -14 47 -6 47 12 0 18 -40 26 -50 10z"/>
 <path d="M13895 6650 c-4 -6 -3 -16 3 -22 6 -6 12 -6 17 2 4 6 3 16 -3 22 -6 6 -12 6 -17 -2z"/>
 <path d="M6655 6630 c-4 -6 -3 -16 3 -22 6 -6 12 -6 17 2 4 6 3 16 -3 22 -6 6 -12 6 -17 -2z"/>
 <path d="M7415 6614 c-10 -16 -15 -39 -13 -60 2 -21 -1 -35 -9 -38 -21 -8 -15 -34 12 -52 43 -28 52 -15 51 82 -1 95 -12 112 -41 68z"/>
 <path d="M7077 6623 c-7 -11 -3 -70 4 -78 10 -9 59 13 59 27 0 13 -42 58 -53 58 -3 0 -8 -3 -10 -7z"/>
 <path d="M7153 6614 c-8 -21 13 -42 28 -27 13 13 5 43 -11 43 -6 0 -13 -7 -17 -16z"/>
 <path d="M13426 6606 c-21 -33 -20 -43 3 -56 24 -12 29 -5 27 37 -2 43 -10 48 -30 19z"/>
 <path d="M12393 6584 c-8 -21 13 -42 28 -27 13 13 5 43 -11 43 -6 0 -13 -7 -17 -16z"/>
 <path d="M13673 6564 c-3 -8 1 -23 10 -32 15 -14 17 -14 23 1 8 21 -1 47 -16 47 -6 0 -13 -7 -17 -16z"/>
 <path d="M6566 6551 c-3 -5 0 -14 8 -20 10 -8 16 -8 25 2 6 8 8 17 4 20 -9 10 -31 9 -37 -2z"/>
 <path d="M6796 6551 c-4 -5 -2 -13 4 -16 6 -4 8 -15 5 -24 -3 -10 1 -23 8 -30 19 -15 42 12 31 36 -4 10 -8 22 -8 28 -1 13 -33 18 -40 6z"/>
 <path d="M7306 6551 c-3 -4 3 -16 13 -25 21 -19 37 -7 27 19 -6 16 -32 20 -40 6z"/>
 <path d="M13494 6549 c-10 -17 13 -36 27 -22 12 12 4 33 -11 33 -5 0 -12 -5 -16 -11z"/>
 <path d="M7125 6540 c-4 -7 -3 -16 3 -22 14 -14 57 -6 57 12 0 18 -50 26 -60 10z"/>
 <path d="M11733 6524 c-9 -23 13 -40 32 -24 12 10 13 16 4 26 -15 18 -28 18 -36 -2z"/>
 <path d="M13773 6529 c-9 -9 -10 -16 -2 -26 6 -7 12 -28 13 -45 1 -22 7 -33 16 -33 10 0 14 8 13 22 -2 18 2 22 20 20 28 -3 30 26 3 31 -11 2 -27 13 -35 24 -13 15 -19 16 -28 7z"/>
 <path d="M13315 6521 c-7 -12 12 -24 25 -16 11 7 4 25 -10 25 -5 0 -11 -4 -15 -9z"/>
 <path d="M6975 6510 c-4 -6 -3 -16 3 -22 6 -6 12 -6 17 2 4 6 3 16 -3 22 -6 6 -12 6 -17 -2z"/>
 <path d="M11825 6510 c-10 -16 16 -43 28 -31 11 11 2 41 -12 41 -5 0 -13 -5 -16 -10z"/>
 <path d="M13594 6505 c-5 -12 -14 -14 -34 -10 -36 8 -45 -7 -21 -36 19 -23 20 -24 63 -8 34 13 43 21 43 40 0 29 -41 40 -51 14z"/>
 <path d="M13905 6510 c-3 -6 -4 -19 0 -29 4 -15 2 -18 -12 -15 -24 7 -51 -16 -55 -46 -2 -20 1 -25 17 -23 28 4 41 -7 49 -42 l8 -30 -26 24 c-35 33 -52 17 -30 -28 12 -25 21 -31 36 -28 11 3 26 3 33 0 14 -5 13 -8 -12 -52 -2 -2 -9 2 -18 9 -12 10 -16 9 -21 -5 -10 -25 19 -49 42 -37 11 6 27 13 37 16 9 3 17 14 17 24 0 10 6 24 13 31 10 10 6 16 -16 33 -22 16 -25 23 -15 29 9 6 12 26 9 71 -4 77 -35 132 -56 98z"/>
 <path d="M7084 6489 c-3 -6 -1 -16 4 -21 13 -13 45 8 36 23 -7 12 -31 11 -40 -2z"/>
 <path d="M11705 6491 c-7 -12 12 -24 25 -16 11 7 4 25 -10 25 -5 0 -11 -4 -15 -9z"/>
 <path d="M11650 6455 c-22 -26 4 -43 30 -20 20 18 18 35 -4 35 -8 0 -19 -7 -26 -15z"/>
 <path d="M13654 6455 c-9 -23 31 -64 48 -47 9 9 5 18 -15 38 -24 23 -27 24 -33 9z"/>
 <path d="M11705 6450 c-4 -7 -3 -16 3 -22 14 -14 45 -2 40 15 -6 16 -34 21 -43 7z"/>
 <path d="M12855 6450 c-4 -7 -3 -16 3 -22 14 -14 45 -2 40 15 -6 16 -34 21 -43 7z"/>
 <path d="M13435 6430 c-4 -6 -3 -16 3 -22 6 -6 12 -6 17 2 4 6 3 16 -3 22 -6 6 -12 6 -17 -2z"/>
 <path d="M12730 6415 c-10 -12 -9 -16 5 -21 23 -9 40 10 22 25 -11 9 -17 8 -27 -4z"/>
 <path d="M12195 6411 c-7 -12 12 -24 25 -16 11 7 4 25 -10 25 -5 0 -11 -4 -15 -9z"/>
 <path d="M13571 6406 c-14 -17 -7 -36 14 -36 22 0 29 20 13 36 -13 13 -16 13 -27 0z"/>
 <path d="M11720 6376 c-10 -13 -10 -19 0 -32 12 -14 15 -14 29 0 14 15 14 17 0 32 -14 14 -17 14 -29 0z"/>
 <path d="M6145 6340 c-4 -6 -3 -16 3 -22 6 -6 12 -6 17 2 4 6 3 16 -3 22 -6 6 -12 6 -17 -2z"/>
 <path d="M6800 6335 c-10 -12 -9 -16 5 -21 19 -8 40 9 31 25 -10 15 -21 14 -36 -4z"/>
 <path d="M7195 6310 c-4 -7 -3 -16 3 -22 14 -14 45 -2 40 15 -6 16 -34 21 -43 7z"/>
 <path d="M11665 6311 c-3 -6 -3 -17 2 -23 4 -7 7 -22 8 -33 0 -11 7 -20 15 -20 22 0 21 79 -2 83 -9 2 -19 -2 -23 -7z"/>
 <path d="M7423 6298 c-4 -7 -21 -13 -38 -13 -20 0 -30 -5 -30 -15 0 -17 29 -25 53 -14 9 4 24 8 32 8 18 1 20 38 3 43 -6 2 -15 -2 -20 -9z"/>
 <path d="M12924 6295 c-4 -9 -2 -21 4 -27 16 -16 47 -5 47 17 0 26 -42 34 -51 10z"/>
 <path d="M12695 6280 c-4 -7 -3 -16 3 -22 14 -14 45 -2 40 15 -6 16 -34 21 -43 7z"/>
 <path d="M13114 6279 c-10 -17 13 -36 27 -22 12 12 4 33 -11 33 -5 0 -12 -5 -16 -11z"/>
 <path d="M6434 6249 c-10 -17 13 -36 27 -22 12 12 4 33 -11 33 -5 0 -12 -5 -16 -11z"/>
 <path d="M7386 6231 c-9 -14 40 -45 60 -37 8 3 14 14 12 23 -4 20 -62 31 -72 14z"/>
 <path d="M6115 6220 c-4 -6 -3 -16 3 -22 6 -6 12 -6 17 2 4 6 3 16 -3 22 -6 6 -12 6 -17 -2z"/>
 <path d="M6614 6219 c-10 -17 13 -36 27 -22 12 12 4 33 -11 33 -5 0 -12 -5 -16 -11z"/>
 <path d="M13984 6219 c-10 -17 13 -36 27 -22 12 12 4 33 -11 33 -5 0 -12 -5 -16 -11z"/>
 <path d="M12684 6189 c-10 -17 13 -36 27 -22 12 12 4 33 -11 33 -5 0 -12 -5 -16 -11z"/>
 <path d="M11706 6171 c-3 -5 1 -14 8 -20 16 -13 32 2 21 19 -8 12 -22 13 -29 1z"/>
 <path d="M11875 6170 c-4 -7 -3 -16 3 -22 14 -14 45 -2 40 15 -6 16 -34 21 -43 7z"/>
 <path d="M13005 6171 c-7 -12 12 -24 25 -16 11 7 4 25 -10 25 -5 0 -11 -4 -15 -9z"/>
 <path d="M13836 6171 c-3 -5 3 -20 13 -32 19 -23 21 -23 37 -7 14 14 15 20 4 32 -14 17 -46 21 -54 7z"/>
 <path d="M7315 6160 c-4 -6 -1 -17 5 -26 10 -11 16 -12 26 -3 11 9 11 15 3 25 -14 17 -25 18 -34 4z"/>
 <path d="M12666 6142 c-9 -14 21 -35 40 -28 8 3 14 12 12 19 -6 15 -44 22 -52 9z"/>
 <path d="M12905 6130 c-4 -6 -3 -16 3 -22 6 -6 12 -6 17 2 4 6 3 16 -3 22 -6 6 -12 6 -17 -2z"/>
 <path d="M13895 6110 c-4 -6 -3 -16 3 -22 6 -6 12 -6 17 2 4 6 3 16 -3 22 -6 6 -12 6 -17 -2z"/>
 <path d="M11895 6100 c-9 -15 3 -30 24 -30 25 0 33 11 20 27 -13 15 -35 17 -44 3z"/>
 <path d="M7424 6079 c-10 -17 13 -36 27 -22 12 12 4 33 -11 33 -5 0 -12 -5 -16 -11z"/>
 <path d="M7184 6049 c-10 -17 13 -36 27 -22 12 12 4 33 -11 33 -5 0 -12 -5 -16 -11z"/>
 <path d="M13704 6049 c-10 -17 13 -36 27 -22 12 12 4 33 -11 33 -5 0 -12 -5 -16 -11z"/>
 <path d="M12665 6020 c-4 -7 -3 -16 3 -22 14 -14 47 -6 47 12 0 18 -40 26 -50 10z"/>
 <path d="M7044 5999 c-10 -17 13 -36 27 -22 12 12 4 33 -11 33 -5 0 -12 -5 -16 -11z"/>
 <path d="M13913 5974 c-9 -23 13 -40 32 -24 12 10 13 16 4 26 -15 18 -28 18 -36 -2z"/>
 <path d="M6094 5959 c-10 -17 13 -36 27 -22 12 12 4 33 -11 33 -5 0 -12 -5 -16 -11z"/>
 <path d="M11934 5929 c-10 -17 13 -36 27 -22 12 12 4 33 -11 33 -5 0 -12 -5 -16 -11z"/>
 <path d="M12284 5869 c-10 -17 13 -36 27 -22 12 12 4 33 -11 33 -5 0 -12 -5 -16 -11z"/>
 <path d="M12714 5839 c-3 -6 0 -17 8 -25 13 -13 16 -13 27 0 7 8 10 20 6 26 -8 13 -32 13 -41 -1z"/>
 <path d="M12290 5705 c-9 -11 -10 -19 -3 -26 17 -17 48 -6 48 16 0 25 -28 31 -45 10z"/>
 <path d="M12973 5624 c-8 -21 13 -42 28 -27 13 13 5 43 -11 43 -6 0 -13 -7 -17 -16z"/>
 <path d="M9516 5451 c-3 -5 2 -19 12 -31 16 -20 19 -21 31 -6 11 13 11 19 1 31 -14 17 -36 20 -44 6z"/>
 <path d="M9475 5340 c-8 -13 20 -24 41 -16 20 8 9 26 -16 26 -10 0 -22 -5 -25 -10z"/>
 <path d="M9504 5235 c-9 -21 3 -45 21 -45 21 0 30 27 15 45 -16 19 -29 19 -36 0z"/>
 <path d="M7124 5096 c-4 -10 -2 -22 4 -28 8 -8 13 -7 18 6 4 10 2 22 -4 28 -8 8 -13 7 -18 -6z"/>
 <path d="M6934 4876 c-8 -21 -1 -59 12 -63 6 -2 19 8 29 23 17 26 17 28 -1 41 -23 17 -33 17 -40 -1z"/>
 <path d="M6794 4835 c-7 -17 2 -45 14 -45 20 0 45 28 39 44 -8 20 -46 21 -53 1z"/>
 <path d="M8404 4595 c-7 -19 7 -50 22 -50 16 0 15 41 0 55 -13 10 -17 9 -22 -5z"/>
 <path d="M8813 4534 c-3 -8 1 -23 10 -32 15 -14 17 -14 23 1 8 21 -1 47 -16 47 -6 0 -13 -7 -17 -16z"/>
 <path d="M6783 4514 c-9 -23 11 -38 26 -20 13 16 7 36 -10 36 -5 0 -12 -7 -16 -16z"/>
 <path d="M9770 4515 c-10 -12 -16 -12 -26 -4 -8 6 -21 9 -29 5 -21 -8 -19 -37 4 -43 21 -5 21 -5 -13 -70 -16 -31 -16 -32 4 -43 11 -6 25 -8 30 -5 6 3 23 -2 39 -11 24 -14 32 -15 45 -5 9 7 31 14 51 15 43 3 64 28 65 75 0 20 7 39 17 46 19 14 11 45 -13 45 -9 0 -18 -9 -21 -20 -7 -26 -19 -26 -26 1 -5 17 -11 20 -32 17 -14 -3 -28 -1 -31 3 -9 14 -51 10 -64 -6z"/>
 <path d="M9336 4461 c-4 -6 1 -22 11 -37 l17 -26 18 22 c10 13 17 28 15 34 -5 15 -53 20 -61 7z"/>
 <path d="M7854 4446 c-8 -22 3 -49 19 -43 6 2 12 14 12 27 0 27 -22 39 -31 16z"/>
 <path d="M9220 4396 c-18 -22 -5 -48 22 -44 17 2 23 10 23 28 0 29 -26 38 -45 16z"/>
 <path d="M8955 4381 c-7 -12 12 -24 25 -16 11 7 4 25 -10 25 -5 0 -11 -4 -15 -9z"/>
 <path d="M6903 4344 c-7 -18 9 -51 23 -46 14 3 11 55 -3 59 -7 3 -16 -3 -20 -13z"/>
 <path d="M7044 4339 c-10 -17 13 -36 27 -22 12 12 4 33 -11 33 -5 0 -12 -5 -16 -11z"/>
 <path d="M6923 4264 c-9 -23 11 -38 26 -20 13 16 7 36 -10 36 -5 0 -12 -7 -16 -16z"/>
 <path d="M8284 4236 c-4 -10 -2 -22 4 -28 8 -8 13 -7 18 6 4 10 2 22 -4 28 -8 8 -13 7 -18 -6z"/>
 <path d="M6970 4144 c-9 -10 -10 -18 -2 -26 12 -12 32 -2 32 17 0 21 -16 26 -30 9z"/>
 <path d="M7434 4095 c-13 -20 -14 -29 -5 -38 9 -9 16 -6 31 13 11 14 18 29 17 34 -7 20 -26 16 -43 -9z"/>
 <path d="M6903 4074 c-8 -21 13 -42 28 -27 13 13 5 43 -11 43 -6 0 -13 -7 -17 -16z"/>
 <path d="M7013 4024 c-8 -21 13 -42 28 -27 13 13 5 43 -11 43 -6 0 -13 -7 -17 -16z"/>
 <path d="M7190 3875 c-7 -8 -9 -22 -6 -32 6 -15 9 -15 28 4 11 12 17 26 14 32 -10 15 -21 14 -36 -4z"/>
 <path d="M7946 3871 c-7 -11 23 -71 38 -76 81 -24 99 -2 40 50 -38 34 -68 43 -78 26z"/>
 <path d="M8045 2950 c-4 -6 -3 -16 3 -22 6 -6 12 -6 17 2 4 6 3 16 -3 22 -6 6 -12 6 -17 -2z"/>
 <path d="M9415 2881 c-7 -13 17 -24 40 -19 9 1 16 8 16 13 0 14 -48 19 -56 6z"/>
 <path d="M10168 2823 c-8 -10 -18 -30 -22 -44 -3 -16 -12 -26 -22 -25 -8 0 -25 -16 -37 -36 -21 -35 -21 -38 -5 -54 24 -25 51 -2 43 37 -9 41 12 45 25 4 13 -41 26 -51 44 -36 10 9 15 8 20 -4 6 -16 61 -21 70 -6 3 5 21 9 40 8 19 0 42 5 51 13 16 13 16 15 -1 27 -16 12 -16 14 0 31 14 17 15 21 2 31 -8 7 -13 18 -10 25 3 7 -3 20 -13 28 -15 13 -30 15 -81 9 -35 -4 -65 -4 -68 1 -8 13 -20 10 -36 -9z"/>
 <path d="M10081 2817 c-8 -10 -7 -19 4 -33 13 -18 15 -18 31 -2 14 14 15 20 4 32 -15 19 -24 20 -39 3z"/>
 <path d="M10590 2726 c-10 -13 -10 -19 0 -32 12 -14 15 -14 29 0 14 15 14 17 0 32 -14 14 -17 14 -29 0z"/>
 <path d="M9374 2395 c-8 -19 3 -34 34 -46 39 -15 50 4 21 35 -27 29 -47 33 -55 11z"/>
 <path d="M5334 13707 c-8 -23 2 -47 20 -47 26 0 29 21 8 43 -19 19 -22 19 -28 4z"/>
 <path d="M4954 13635 c-4 -9 -2 -21 4 -27 15 -15 44 -1 40 19 -4 23 -36 29 -44 8z"/>
 <path d="M5314 13626 c-8 -22 3 -49 19 -43 6 2 12 14 12 27 0 27 -22 39 -31 16z"/>
 <path d="M5155 13610 c-4 -6 -3 -16 3 -22 6 -6 12 -6 17 2 4 6 3 16 -3 22 -6 6 -12 6 -17 -2z"/>
 <path d="M4873 13585 c-3 -9 2 -24 11 -34 9 -10 16 -22 16 -27 0 -5 -5 -1 -11 9 -13 23 -29 13 -29 -19 0 -17 8 -27 27 -35 41 -15 57 -5 38 24 -8 13 -13 31 -9 40 6 18 -12 57 -27 57 -5 0 -12 -7 -16 -15z"/>
 <path d="M5193 13574 c-8 -21 13 -42 28 -27 13 13 5 43 -11 43 -6 0 -13 -7 -17 -16z"/>
 <path d="M4775 13560 c-21 -23 -14 -35 26 -45 35 -9 44 8 23 40 -20 30 -26 31 -49 5z"/>
 <path d="M5014 13569 c-10 -17 13 -36 27 -22 12 12 4 33 -11 33 -5 0 -12 -5 -16 -11z"/>
 <path d="M4677 13543 c-3 -5 -3 -30 -2 -58 2 -35 -2 -55 -13 -68 -14 -16 -13 -20 14 -46 36 -36 67 -43 72 -18 2 12 -3 20 -15 23 -22 6 -24 49 -5 97 16 39 15 42 -13 61 -27 18 -32 19 -38 9z"/>
 <path d="M4624 13485 c-4 -9 -2 -21 4 -27 15 -15 44 -1 40 19 -4 23 -36 29 -44 8z"/>
 <path d="M4793 13454 c-8 -21 13 -42 28 -27 13 13 5 43 -11 43 -6 0 -13 -7 -17 -16z"/>
 <path d="M2162 9658 c-29 -29 -2 -60 29 -32 14 13 16 20 8 31 -14 16 -22 16 -37 1z"/>
 <path d="M2043 9524 c-8 -21 13 -42 28 -27 13 13 5 43 -11 43 -6 0 -13 -7 -17 -16z"/>
 <path d="M2245 9230 c-10 -17 12 -37 25 -24 8 8 6 15 -4 23 -10 9 -16 9 -21 1z"/>
 <path d="M2137 9104 c-10 -10 23 -66 36 -61 20 6 20 40 1 54 -20 15 -28 16 -37 7z"/>
 <path d="M2107 9039 c-20 -12 -22 -30 -5 -47 15 -15 38 3 38 29 0 23 -11 30 -33 18z"/>
 <path d="M2230 8904 c-9 -10 -10 -18 -2 -26 12 -12 32 -2 32 17 0 21 -16 26 -30 9z"/>
 <path d="M2158 8797 c-21 -17 -25 -26 -17 -39 6 -10 16 -18 23 -18 18 0 49 48 42 66 -7 19 -16 17 -48 -9z"/>
 <path d="M2074 8776 c-18 -14 -18 -15 0 -35 22 -24 36 -19 36 14 0 31 -12 38 -36 21z"/>
 <path d="M1894 8767 c-8 -23 2 -47 20 -47 26 0 29 21 8 43 -19 19 -22 19 -28 4z"/>
 <path d="M2354 8725 c-4 -9 -2 -21 4 -27 15 -15 44 -1 40 19 -4 23 -36 29 -44 8z"/>
 <path d="M2014 8719 c-10 -17 13 -36 27 -22 12 12 4 33 -11 33 -5 0 -12 -5 -16 -11z"/>
 <path d="M1944 8679 c-3 -6 0 -17 8 -25 11 -12 21 -12 42 -4 15 5 26 16 24 22 -6 16 -65 21 -74 7z"/>
 <path d="M2043 8674 c-9 -23 9 -47 36 -49 32 -2 39 24 12 47 -29 22 -40 23 -48 2z"/>
 <path d="M2383 8674 c-8 -21 13 -42 28 -27 13 13 5 43 -11 43 -6 0 -13 -7 -17 -16z"/>
 <path d="M2214 8655 c-9 -22 22 -53 37 -38 15 15 7 47 -14 51 -9 2 -20 -4 -23 -13z"/>
 <path d="M2434 8614 c-13 -19 -14 -28 -5 -37 15 -15 56 25 48 47 -9 23 -24 20 -43 -10z"/>
 <path d="M2294 8536 c-4 -10 -2 -22 4 -28 8 -8 13 -7 18 6 4 10 2 22 -4 28 -8 8 -13 7 -18 -6z"/>
 <path d="M2887 8489 c-15 -17 -24 -35 -21 -40 8 -13 32 -11 41 4 4 8 16 16 26 20 14 5 16 11 7 27 -14 27 -21 25 -53 -11z"/>
 <path d="M2274 8447 c-3 -9 -3 -25 0 -34 6 -15 8 -15 24 0 15 16 15 18 0 34 -16 15 -18 15 -24 0z"/>
 <path d="M2731 8422 c-8 -14 -6 -24 4 -38 15 -19 15 -19 30 1 9 11 14 26 13 35 -5 22 -35 24 -47 2z"/>
 <path d="M2478 8385 c-9 -19 -9 -28 0 -37 16 -16 57 23 49 46 -10 24 -36 19 -49 -9z"/>
 <path d="M2634 8365 c-15 -10 -16 -16 -7 -26 14 -15 43 -5 43 15 0 22 -15 27 -36 11z"/>
 <path d="M2703 8364 c-9 -23 11 -38 26 -20 13 16 7 36 -10 36 -5 0 -12 -7 -16 -16z"/>
 <path d="M2834 8365 c-8 -21 2 -45 19 -45 8 0 20 7 27 15 10 12 10 18 0 30 -7 8 -19 15 -27 15 -7 0 -16 -7 -19 -15z"/>
 <path d="M2903 8314 c-9 -23 13 -40 32 -24 12 10 13 16 4 26 -15 18 -28 18 -36 -2z"/>
 <path d="M2542 8308 c-16 -16 -15 -37 3 -44 11 -5 12 -11 4 -25 -5 -10 -8 -19 -7 -20 21 -7 89 -6 93 1 4 6 -7 24 -24 41 -17 16 -30 35 -28 41 3 17 -26 21 -41 6z"/>
 <path d="M1877 8304 c-14 -14 -7 -51 13 -69 18 -16 20 -16 26 -2 12 32 -20 90 -39 71z"/>
 <path d="M2377 8273 c-11 -10 -8 -41 4 -49 6 -3 17 0 25 8 13 12 12 17 -4 31 -10 9 -22 14 -25 10z"/>
 <path d="M2237 8242 c-16 -18 -16 -20 1 -36 17 -14 21 -15 31 -2 14 17 11 48 -5 53 -6 2 -18 -5 -27 -15z"/>
 <path d="M2880 8234 c-15 -40 -9 -69 15 -69 17 0 20 7 20 44 0 52 -20 66 -35 25z"/>
 <path d="M2808 8229 c-20 -11 -24 -34 -7 -45 13 -8 51 35 43 48 -7 10 -15 10 -36 -3z"/>
 <path d="M2754 8196 c-4 -10 -2 -22 4 -28 8 -8 13 -7 18 6 4 10 2 22 -4 28 -8 8 -13 7 -18 -6z"/>
 <path d="M2434 8185 c-4 -9 -2 -21 4 -27 15 -15 44 -1 40 19 -4 23 -36 29 -44 8z"/>
 <path d="M2495 8110 c-14 -27 -14 -31 0 -36 21 -8 47 15 43 39 -5 32 -25 31 -43 -3z"/>
 <path d="M2750 8120 c-17 -31 3 -51 27 -27 16 16 16 18 1 33 -15 15 -17 15 -28 -6z"/>
 <path d="M2286 8101 c-21 -24 -14 -54 11 -49 20 4 30 45 16 59 -6 6 -17 2 -27 -10z"/>
 <path d="M2784 8056 c-8 -21 3 -49 16 -41 5 3 10 15 10 25 0 25 -18 36 -26 16z"/>
 <path d="M1975 8040 c-4 -6 -3 -16 3 -22 6 -6 12 -6 17 2 4 6 3 16 -3 22 -6 6 -12 6 -17 -2z"/>
 <path d="M2695 8006 c-18 -13 -16 -46 3 -46 20 0 45 28 39 44 -8 20 -17 20 -42 2z"/>
 <path d="M2605 7986 c-12 -8 -16 -19 -12 -30 8 -20 26 -17 41 7 16 24 -5 41 -29 23z"/>
 <path d="M2844 7975 c-7 -17 22 -55 42 -55 34 0 23 39 -18 61 -14 7 -20 6 -24 -6z"/>
 <path d="M2764 7905 c-9 -21 3 -45 21 -45 21 0 30 27 15 45 -16 19 -29 19 -36 0z"/>
 <path d="M2509 7853 c-13 -35 4 -54 28 -31 15 16 17 16 29 0 16 -22 37 -4 32 29 -2 19 -10 24 -41 26 -33 2 -39 -2 -48 -24z"/>
 <path d="M2913 7834 c-3 -8 1 -22 9 -30 13 -13 16 -13 28 0 10 13 10 19 0 31 -16 19 -29 19 -37 -1z"/>
 <path d="M2036 7788 c-11 -15 -13 -25 -6 -32 14 -14 45 6 45 29 0 27 -21 29 -39 3z"/>
 <path d="M2834 7785 c-4 -9 -2 -21 4 -27 15 -15 44 -1 40 19 -4 23 -36 29 -44 8z"/>
 <path d="M3194 7759 c-10 -17 13 -36 27 -22 12 12 4 33 -11 33 -5 0 -12 -5 -16 -11z"/>
 <path d="M2994 7749 c-10 -17 13 -36 27 -22 12 12 4 33 -11 33 -5 0 -12 -5 -16 -11z"/>
 <path d="M2736 7741 c-3 -4 3 -16 13 -25 21 -19 37 -7 27 19 -6 16 -32 20 -40 6z"/>
 <path d="M2914 7735 c-4 -9 -2 -21 4 -27 15 -15 44 -1 40 19 -4 23 -36 29 -44 8z"/>
 <path d="M2856 7707 c-15 -11 -17 -17 -7 -35 14 -27 23 -27 46 -2 32 36 0 66 -39 37z"/>
 <path d="M2854 7259 c-10 -17 13 -36 27 -22 12 12 4 33 -11 33 -5 0 -12 -5 -16 -11z"/>
 <path d="M3394 6036 c-9 -24 12 -44 28 -28 10 10 8 16 -5 29 -15 15 -17 15 -23 -1z"/>
 <path d="M3428 5603 c-25 -12 -41 -38 -37 -59 1 -5 1 -18 0 -28 -1 -18 -2 -18 -19 -3 -14 13 -21 14 -30 5 -7 -7 -26 -12 -44 -12 -28 -1 -33 -5 -36 -29 -4 -34 21 -46 47 -23 16 15 19 14 40 -15 16 -22 26 -27 35 -20 8 7 12 4 11 -12 0 -12 4 -23 9 -24 5 0 13 -8 18 -17 5 -9 19 -16 31 -16 13 0 28 -5 35 -12 9 -9 15 -9 24 0 10 10 10 17 -1 34 -10 17 -10 22 0 29 8 4 17 1 24 -8 10 -13 14 -11 29 12 13 20 15 30 6 40 -9 10 -7 20 5 39 9 14 14 30 11 35 -4 5 -2 12 4 16 17 11 11 41 -13 64 -21 19 -25 20 -37 6 -7 -8 -21 -13 -30 -10 -9 3 -23 -1 -30 -10 -7 -8 -17 -15 -22 -15 -6 0 -5 7 2 15 19 23 -1 34 -32 18z"/>
 <path d="M3133 5154 c-8 -21 13 -42 28 -27 13 13 5 43 -11 43 -6 0 -13 -7 -17 -16z"/>
 <path d="M3690 4235 c-19 -23 -1 -39 21 -19 10 9 16 21 13 25 -8 13 -20 11 -34 -6z"/>
 <path d="M4616 3203 c-4 -5 -12 -8 -18 -8 -6 0 -16 -8 -21 -17 -19 -29 18 -60 67 -56 54 4 62 35 18 67 -34 23 -36 24 -46 14z"/>
 <path d="M846 10641 c-12 -14 -14 -21 -6 -26 17 -10 47 22 34 35 -7 7 -16 4 -28 -9z"/>
 <path d="M624 10516 c-3 -9 -1 -23 6 -30 9 -12 6 -18 -14 -31 -14 -9 -26 -26 -28 -38 -2 -14 -10 -22 -22 -22 -10 0 -22 -9 -27 -20 -4 -11 -26 -40 -48 -64 -23 -25 -41 -47 -41 -50 0 -4 -15 -6 -32 -6 -32 0 -33 -2 -33 -40 0 -22 -4 -46 -8 -52 -5 -7 -5 -18 -2 -23 4 -6 1 -9 -7 -8 -9 2 -14 -10 -16 -39 -3 -37 0 -42 27 -56 22 -11 33 -12 38 -4 4 6 10 1 15 -12 7 -20 13 -22 47 -16 34 6 41 3 51 -14 9 -17 15 -19 30 -11 26 14 25 28 -1 56 l-21 23 21 29 c11 17 21 36 21 44 0 8 5 19 12 26 9 9 8 17 -2 37 -12 22 -11 27 5 45 17 19 17 21 1 39 -11 12 -14 21 -7 26 6 3 12 16 12 28 1 16 3 14 8 -8 10 -46 43 -41 55 9 7 33 6 41 -9 52 -23 17 -10 38 14 22 10 -6 26 -8 35 -5 25 10 19 44 -11 59 -15 7 -30 24 -33 37 -7 29 -28 39 -36 17z m-80 -276 c19 0 19 -1 1 -13 -12 -10 -16 -22 -13 -41 l5 -27 -23 22 c-23 22 -24 22 -44 4 l-20 -18 21 -23 c13 -14 17 -24 10 -29 -18 -11 -12 -25 14 -35 14 -5 25 -12 25 -15 0 -4 -4 -4 -8 -1 -4 3 -24 1 -44 -3 -34 -8 -38 -7 -51 21 -13 27 -12 34 11 79 14 30 34 54 48 59 13 5 24 17 24 27 0 13 3 14 12 5 7 -7 21 -12 32 -12z m-4 -119 c0 -14 -5 -18 -20 -14 -19 5 -20 6 -3 19 23 17 23 17 23 -5z"/>
 <path d="M764 10513 c-3 -10 -11 -28 -17 -41 -9 -19 -7 -26 10 -44 30 -30 44 -15 41 44 -3 52 -23 76 -34 41z"/>
 <path d="M471 10447 c-6 -8 -36 -26 -67 -42 -31 -16 -58 -34 -61 -42 -3 -7 -11 -13 -19 -13 -7 0 -20 -10 -28 -22 -9 -12 -16 -19 -16 -14 0 4 -20 -13 -43 -38 -24 -25 -48 -46 -53 -46 -5 0 -22 -16 -37 -35 -15 -19 -41 -42 -57 -50 -17 -9 -30 -22 -30 -29 0 -8 -13 -28 -30 -44 l-30 -30 0 -148 0 -147 27 24 c15 13 21 16 14 6 -17 -21 -1 -67 23 -67 8 0 16 -10 18 -22 5 -34 31 -33 57 2 21 30 22 33 6 50 -9 10 -22 17 -28 15 -7 -3 -23 5 -36 16 -23 19 -23 20 -6 39 16 18 19 28 24 79 1 11 5 11 19 -2 24 -22 49 -21 61 1 11 21 -3 52 -24 52 -23 0 -18 16 16 55 l32 36 24 -23 c14 -13 22 -30 20 -40 -7 -26 14 -34 30 -13 19 26 16 72 -4 84 -15 8 -16 13 -5 30 6 12 12 32 12 46 0 29 0 28 35 15 21 -8 27 -7 32 6 3 9 1 25 -5 35 -10 16 -7 26 22 63 18 24 59 71 90 103 62 64 74 87 56 108 -15 18 -24 19 -39 2z"/>
 <path d="M945 10446 c-26 -19 -13 -51 15 -36 20 11 27 35 11 44 -4 3 -16 -1 -26 -8z"/>
 <path d="M594 10219 c-10 -17 13 -36 27 -22 12 12 4 33 -11 33 -5 0 -12 -5 -16 -11z"/>
 <path d="M690 10155 c-16 -20 -22 -63 -10 -70 6 -4 5 -14 -2 -24 -15 -24 -4 -51 21 -51 10 0 21 -9 24 -20 6 -23 29 -26 47 -6 13 17 10 57 -5 56 -5 -1 -12 7 -16 17 -3 10 -12 18 -20 18 -9 0 -13 14 -14 42 0 49 -7 59 -25 38z"/>
 <path d="M775 10096 c-12 -9 -16 -19 -11 -31 6 -18 8 -17 29 3 26 27 12 50 -18 28z"/>
 <path d="M591 10082 c-13 -25 -14 -59 -2 -66 4 -3 19 6 32 20 l23 24 -21 21 -21 21 -11 -20z"/>
 <path d="M294 10065 c-4 -9 -1 -28 5 -41 6 -14 9 -29 6 -33 -2 -5 4 -16 14 -26 19 -16 20 -16 35 7 15 23 15 27 0 56 -20 41 -52 60 -60 37z"/>
 <path d="M375 9990 c-4 -6 -4 -21 -1 -33 4 -17 0 -25 -17 -32 -25 -11 -34 -48 -19 -79 6 -12 13 -29 16 -38 3 -11 11 -15 21 -12 10 4 15 0 15 -15 0 -24 -10 -27 -28 -9 -20 20 -46 -13 -37 -50 12 -57 47 -65 66 -15 5 13 13 22 17 19 12 -7 13 -64 1 -72 -5 -3 -7 -10 -3 -15 3 -5 0 -8 -7 -7 -20 5 -22 -72 -2 -79 9 -4 21 1 28 11 7 9 19 14 27 11 10 -4 25 10 45 41 l31 47 7 -32 c3 -17 11 -33 16 -36 5 -4 9 -15 9 -26 0 -11 6 -22 14 -25 8 -3 22 -21 31 -40 15 -32 38 -44 49 -25 8 12 -22 70 -51 102 -13 14 -25 37 -25 50 -2 39 -16 49 -63 44 -44 -4 -44 -3 -54 40 -2 6 -7 15 -12 22 -16 18 3 22 79 14 6 0 12 -9 12 -20 0 -33 23 -43 59 -25 36 18 37 21 14 46 -16 18 -15 19 5 34 12 8 22 20 22 27 0 6 12 23 27 39 23 24 24 28 9 34 -12 5 -27 -3 -48 -27 -19 -21 -41 -34 -57 -34 -33 -1 -73 -23 -66 -36 11 -16 -7 -10 -20 8 -11 15 -15 15 -29 4 -10 -8 -16 -9 -16 -3 0 6 4 13 9 16 15 10 -4 61 -22 61 -9 0 -22 6 -29 13 -10 10 -5 18 22 40 35 30 37 66 3 60 -10 -1 -23 1 -30 5 -6 4 -15 2 -18 -3z"/>
 <path d="M853 9984 c-8 -21 13 -42 28 -27 13 13 5 43 -11 43 -6 0 -13 -7 -17 -16z"/>
 <path d="M471 9972 c-11 -20 3 -52 22 -52 7 0 21 -14 31 -31 13 -21 24 -29 36 -26 11 3 21 -2 25 -11 9 -25 57 26 53 58 -4 38 -36 38 -51 1 -7 -17 -16 -28 -20 -25 -4 4 -2 13 4 21 9 10 8 18 -6 33 -10 11 -21 17 -25 15 -4 -3 -10 4 -13 15 -6 25 -43 26 -56 2z"/>
 <path d="M727 9954 c-10 -10 -9 -52 2 -58 4 -3 17 1 27 9 19 14 19 14 -2 35 -11 11 -23 17 -27 14z"/>
 <path d="M743 9868 c-16 -17 -19 -27 -12 -40 19 -34 54 -16 61 32 4 33 -22 37 -49 8z"/>
 <path d="M124 9846 c-3 -7 -1 -28 3 -46 7 -26 15 -33 35 -36 54 -5 58 44 6 80 -28 20 -37 20 -44 2z"/>
 <path d="M264 9836 c-3 -8 -12 -12 -20 -9 -18 6 -30 -25 -16 -39 8 -8 15 -8 27 2 8 7 15 9 15 5 0 -5 9 0 20 10 15 14 17 21 9 32 -15 17 -28 17 -35 -1z"/>
 <path d="M874 9836 c-8 -21 3 -49 16 -41 5 3 10 15 10 25 0 25 -18 36 -26 16z"/>
 <path d="M225 9740 c-4 -6 0 -19 8 -28 14 -17 12 -47 -3 -37 -4 2 -15 -4 -25 -15 -24 -27 -8 -45 27 -31 27 10 41 9 71 -4 29 -12 41 9 17 30 -11 10 -20 14 -21 9 -1 -5 -6 11 -13 36 -9 33 -17 46 -33 48 -12 2 -24 -2 -28 -8z"/>
 <path d="M0 9643 c0 -35 17 -53 26 -29 3 8 -1 25 -10 38 l-16 22 0 -31z"/>
 <path d="M87 9643 c-11 -10 -8 -51 4 -58 5 -4 19 1 29 10 15 14 17 22 9 36 -10 19 -30 25 -42 12z"/>
 <path d="M804 9608 c-4 -6 0 -16 8 -22 8 -6 17 -19 21 -28 6 -18 42 -25 51 -10 7 11 -43 72 -59 72 -8 0 -17 -5 -21 -12z"/>
 <path d="M133 9574 c-8 -21 13 -42 28 -27 13 13 5 43 -11 43 -6 0 -13 -7 -17 -16z"/>
 <path d="M401 9526 c-9 -11 -10 -20 -1 -35 6 -12 14 -21 19 -21 16 0 43 40 38 55 -8 19 -41 20 -56 1z"/>
 <path d="M534 9527 c-3 -8 0 -26 6 -41 7 -20 16 -27 33 -24 31 4 35 42 5 62 -27 19 -37 20 -44 3z"/>
 <path d="M764 9527 c-6 -18 13 -67 26 -67 17 0 22 24 11 53 -11 29 -28 35 -37 14z"/>
 <path d="M247 9523 c-11 -11 -8 -48 6 -62 10 -10 7 -12 -13 -9 -22 3 -25 0 -23 -25 2 -35 22 -62 35 -49 23 23 84 -34 94 -87 6 -32 22 -31 48 4 33 43 29 80 -4 50 -11 -10 -20 -13 -20 -7 0 6 5 14 10 17 16 10 11 41 -10 60 -16 15 -22 15 -35 5 -12 -10 -15 -10 -15 4 0 9 -11 21 -25 26 -14 5 -25 12 -25 15 0 2 12 0 26 -5 35 -14 58 3 43 32 -6 11 -17 17 -24 14 -7 -2 -19 2 -25 10 -13 15 -32 18 -43 7z"/>
 <path d="M193 9497 c-5 -8 -27 -13 -55 -13 -26 1 -48 -3 -48 -9 0 -5 8 -10 18 -10 9 0 20 -8 24 -18 6 -14 14 -17 30 -11 31 9 71 50 63 64 -9 14 -22 13 -32 -3z"/>
 <path d="M874 9497 c-7 -20 3 -37 21 -37 23 0 26 16 5 35 -18 16 -20 16 -26 2z"/>
 <path d="M735 9448 c-8 -21 10 -73 26 -73 22 0 19 79 -4 83 -9 2 -19 -2 -22 -10z"/>
 <path d="M485 9440 c-8 -13 13 -40 31 -40 20 0 27 19 14 35 -14 17 -36 19 -45 5z"/>
 <path d="M553 9414 c-17 -13 -17 -15 2 -29 12 -10 28 -13 40 -10 11 4 30 6 42 6 26 -1 40 16 24 32 -16 16 -87 17 -108 1z"/>
 <path d="M34 9406 c-4 -10 -2 -22 4 -28 8 -8 13 -7 18 6 4 10 2 22 -4 28 -8 8 -13 7 -18 -6z"/>
 <path d="M453 9404 c-8 -21 13 -42 28 -27 13 13 5 43 -11 43 -6 0 -13 -7 -17 -16z"/>
 <path d="M164 9389 c-6 -11 31 -48 49 -49 12 0 21 30 11 40 -17 15 -52 21 -60 9z"/>
 <path d="M7 9384 c-4 -4 -7 -19 -7 -33 l0 -25 16 23 c15 21 7 51 -9 35z"/>
 <path d="M788 9349 c-19 -11 -24 -44 -9 -54 5 -3 13 -1 16 5 5 8 11 8 20 0 22 -18 37 12 19 38 -17 25 -22 26 -46 11z"/>
 <path d="M487 9343 c-15 -15 -7 -72 12 -82 23 -13 31 -5 31 29 0 27 -31 66 -43 53z"/>
 <path d="M104 9289 c-10 -17 13 -36 27 -22 12 12 4 33 -11 33 -5 0 -12 -5 -16 -11z"/>
 <path d="M255 9280 c-10 -11 -22 -17 -26 -14 -5 3 -12 -3 -15 -13 -3 -10 -10 -26 -15 -35 -15 -30 10 -31 44 -2 35 29 52 63 39 76 -5 5 -17 0 -27 -12z"/>
 <path d="M546 9291 c-3 -5 1 -14 8 -20 16 -13 32 2 21 19 -8 12 -22 13 -29 1z"/>
 <path d="M593 9261 c-3 -12 -11 -17 -23 -14 -10 3 -23 -4 -32 -16 -8 -12 -18 -18 -21 -15 -4 4 -9 -1 -13 -10 -8 -21 25 -61 39 -47 6 6 18 0 31 -16 l22 -26 21 35 c12 21 18 41 13 48 -5 7 -3 21 2 30 6 10 8 25 5 34 -9 22 -38 20 -44 -3z"/>
 <path d="M694 9267 c-8 -23 12 -70 29 -64 19 6 18 30 -2 57 -18 23 -20 23 -27 7z"/>
 <path d="M5 9249 c-4 -11 -4 -23 -2 -26 9 -8 27 7 27 22 0 23 -18 27 -25 4z"/>
 <path d="M293 9254 c-3 -8 1 -22 9 -30 13 -13 17 -12 32 5 10 11 15 25 11 30 -10 17 -45 13 -52 -5z"/>
 <path d="M378 9245 c-8 -17 -8 -29 -1 -36 13 -13 47 25 40 46 -9 23 -26 18 -39 -10z"/>
 <path d="M41 9236 c-20 -24 -6 -48 26 -44 22 2 28 8 28 28 0 30 -35 40 -54 16z"/>
 <path d="M756 9228 c-9 -13 -12 -26 -7 -31 13 -13 53 12 49 30 -5 26 -25 26 -42 1z"/>
 <path d="M415 9200 c-17 -19 -17 -20 0 -26 19 -8 49 22 39 37 -8 14 -19 11 -39 -11z"/>
 <path d="M321 9186 c-11 -13 -11 -19 -1 -31 14 -17 36 -20 44 -6 3 5 -2 19 -12 31 -16 20 -19 21 -31 6z"/>
 <path d="M695 9177 c-18 -14 -18 -18 10 -67 12 -21 12 -27 -2 -43 -15 -16 -15 -19 -1 -33 17 -17 38 -11 38 11 0 7 6 15 14 18 18 7 17 46 0 67 -6 8 -14 24 -15 34 -5 25 -20 30 -44 13z"/>
 <path d="M154 9146 c-4 -10 -2 -22 4 -28 8 -8 13 -7 18 6 4 10 2 22 -4 28 -8 8 -13 7 -18 -6z"/>
 <path d="M483 9144 c-8 -21 13 -42 28 -27 13 13 5 43 -11 43 -6 0 -13 -7 -17 -16z"/>
 <path d="M564 9116 c-9 -24 12 -44 28 -28 10 10 8 16 -5 29 -15 15 -17 15 -23 -1z"/>
 <path d="M13 9103 c-8 -3 -13 -23 -13 -49 0 -43 1 -44 38 -44 4 0 7 6 8 13 0 6 4 20 8 29 17 38 -6 66 -41 51z"/>
 <path d="M137 9094 c-11 -11 -8 -52 3 -59 17 -10 41 16 38 39 -3 21 -28 33 -41 20z"/>
 <path d="M384 9017 c-3 -9 -3 -25 0 -34 6 -15 8 -15 24 0 15 16 15 18 0 34 -16 15 -18 15 -24 0z"/>
 <path d="M20 8920 c0 -29 4 -40 13 -37 6 2 12 19 12 37 0 18 -6 35 -12 38 -9 2 -13 -9 -13 -38z"/>
 <path d="M763 8944 c-8 -21 13 -42 28 -27 13 13 5 43 -11 43 -6 0 -13 -7 -17 -16z"/>
 <path d="M695 8830 c-4 -6 -3 -16 3 -22 6 -6 12 -6 17 2 4 6 3 16 -3 22 -6 6 -12 6 -17 -2z"/>
 <path d="M196 8521 c-3 -4 3 -16 13 -25 21 -19 37 -7 27 19 -6 16 -32 20 -40 6z"/>
 <path d="M755 8494 c-12 -19 -14 -29 -6 -37 15 -15 56 25 48 47 -9 23 -22 20 -42 -10z"/>
 <path d="M13125 2490 c-4 -7 -3 -16 3 -22 14 -14 45 -2 40 15 -6 16 -34 21 -43 7z"/>
 <path d="M13046 1971 c-9 -15 23 -36 36 -23 5 5 7 15 4 21 -9 13 -33 14 -40 2z"/>
 <path d="M12670 1865 c-11 -14 -9 -20 19 -46 35 -31 46 -35 57 -18 3 6 -9 27 -28 46 -31 31 -36 33 -48 18z"/>
 <path d="M11487 1839 c-14 -8 -16 -14 -6 -25 13 -16 45 -19 54 -4 7 11 -11 40 -24 40 -3 0 -14 -5 -24 -11z"/>
 <path d="M11950 1835 c-6 -8 -9 -19 -5 -24 3 -7 0 -8 -9 -5 -23 9 -29 -18 -12 -50 11 -22 12 -33 3 -47 -9 -14 -9 -21 0 -30 16 -16 36 -1 30 22 -3 11 -2 17 3 14 11 -7 19 -55 9 -55 -10 0 -34 -45 -43 -83 -9 -37 12 -44 59 -21 29 13 41 15 55 6 22 -14 46 9 36 34 -5 13 -1 14 22 9 39 -8 70 25 55 58 -11 24 -3 51 13 45 5 -1 10 9 12 25 2 15 7 25 12 22 15 -9 34 24 21 38 -6 8 -8 17 -5 20 4 3 4 14 0 23 -5 13 -9 14 -21 4 -8 -6 -19 -9 -25 -5 -6 4 -17 1 -25 -5 -11 -10 -18 -10 -29 -1 -8 6 -18 11 -22 10 -5 -1 -17 1 -26 5 -9 4 -26 2 -38 -4 -16 -9 -25 -9 -33 -1 -15 15 -22 14 -37 -4z"/>
 <path d="M11614 1829 c-10 -17 13 -36 27 -22 12 12 4 33 -11 33 -5 0 -12 -5 -16 -11z"/>
 <path d="M13293 1804 c-8 -21 13 -42 28 -27 13 13 5 43 -11 43 -6 0 -13 -7 -17 -16z"/>
 <path d="M11754 1789 c-10 -17 13 -36 27 -22 12 12 4 33 -11 33 -5 0 -12 -5 -16 -11z"/>
 <path d="M13145 1770 c-4 -6 -3 -16 3 -22 6 -6 12 -6 17 2 4 6 3 16 -3 22 -6 6 -12 6 -17 -2z"/>
 <path d="M11835 1740 c-3 -5 -3 -16 2 -22 4 -7 6 -23 5 -35 -4 -27 12 -37 28 -18 10 12 10 19 -2 33 -9 9 -13 22 -11 29 5 15 -14 26 -22 13z"/>
 <path d="M13046 1711 c-3 -5 0 -14 8 -20 10 -8 16 -8 25 2 6 8 8 17 4 20 -9 10 -31 9 -37 -2z"/>
 <path d="M13509 1692 c-7 -11 -18 -18 -25 -15 -16 6 -27 -14 -20 -34 5 -13 9 -13 23 -2 15 12 16 12 10 -3 -3 -9 0 -21 7 -27 19 -16 48 20 49 60 2 39 -25 52 -44 21z"/>
 <path d="M11785 1681 c-8 -15 14 -53 28 -48 18 6 15 51 -5 55 -9 2 -19 -2 -23 -7z"/>
 <path d="M12975 1661 c-7 -12 12 -24 25 -16 11 7 4 25 -10 25 -5 0 -11 -4 -15 -9z"/>
 <path d="M12264 1629 c-3 -6 -1 -16 4 -21 13 -13 45 8 36 23 -7 12 -31 11 -40 -2z"/>
 <path d="M12476 1621 c-14 -15 -14 -20 -3 -29 19 -16 53 9 44 32 -8 21 -20 20 -41 -3z"/>
 <path d="M12157 1612 c-10 -10 -14 -22 -10 -27 5 -4 2 -5 -5 -1 -17 10 -27 -21 -12 -39 14 -17 44 -12 71 12 15 13 15 17 2 44 -17 34 -24 36 -46 11z"/>
 <path d="M13173 1614 c-9 -23 11 -38 26 -20 13 16 7 36 -10 36 -5 0 -12 -7 -16 -16z"/>
 <path d="M13145 1570 c-9 -15 13 -40 35 -40 26 0 32 12 13 32 -18 20 -38 23 -48 8z"/>
 <path d="M12245 1540 c-4 -6 -11 -8 -16 -4 -15 9 -36 -14 -35 -39 1 -25 40 -32 42 -7 1 8 2 18 3 22 0 4 13 3 27 -2 35 -14 49 -3 28 21 -19 21 -39 25 -49 9z"/>
 <path d="M11495 1521 c-7 -12 12 -24 25 -16 11 7 4 25 -10 25 -5 0 -11 -4 -15 -9z"/>
 <path d="M11654 1499 c-9 -16 12 -33 31 -25 14 5 15 9 5 21 -15 18 -26 19 -36 4z"/>
 <path d="M13200 1480 c-8 -15 -9 -25 -2 -32 17 -17 42 -1 39 24 -5 30 -23 34 -37 8z"/>
 <path d="M13265 1480 c-4 -7 -3 -16 3 -22 14 -14 45 -2 40 15 -6 16 -34 21 -43 7z"/>
 <path d="M12475 1470 c-4 -6 -3 -16 3 -22 6 -6 12 -6 17 2 4 6 3 16 -3 22 -6 6 -12 6 -17 -2z"/>
 <path d="M12964 1406 c-4 -10 -2 -22 4 -28 8 -8 13 -7 18 6 4 10 2 22 -4 28 -8 8 -13 7 -18 -6z"/>
 <path d="M13255 1390 c-4 -6 -3 -16 3 -22 6 -6 12 -6 17 2 4 6 3 16 -3 22 -6 6 -12 6 -17 -2z"/>
 <path d="M12810 1375 c-20 -24 4 -45 26 -24 13 14 13 17 1 27 -11 10 -17 9 -27 -3z"/>
 <path d="M12004 1329 c-3 -6 0 -17 8 -25 13 -13 16 -13 27 0 7 8 10 20 6 26 -8 13 -32 13 -41 -1z"/>
 <path d="M12714 1309 c-10 -17 13 -36 27 -22 12 12 4 33 -11 33 -5 0 -12 -5 -16 -11z"/>
 <path d="M13193 1310 c-26 -10 -29 -20 -11 -38 12 -12 96 -6 113 9 23 22 -61 45 -102 29z"/>
 <path d="M13311 1298 c-11 -30 5 -54 26 -36 16 13 14 50 -5 56 -6 2 -16 -7 -21 -20z"/>
 <path d="M12875 1300 c-4 -6 -3 -16 3 -22 6 -6 12 -6 17 2 4 6 3 16 -3 22 -6 6 -12 6 -17 -2z"/>
 <path d="M12984 1295 c-7 -18 3 -35 21 -35 21 0 28 19 15 35 -16 19 -29 19 -36 0z"/>
 <path d="M12184 1279 c-3 -6 -1 -16 4 -21 13 -13 45 8 36 23 -7 12 -31 11 -40 -2z"/>
 <path d="M13384 1269 c-10 -17 13 -36 27 -22 12 12 4 33 -11 33 -5 0 -12 -5 -16 -11z"/>
 <path d="M13340 1235 c-10 -12 -9 -16 5 -21 23 -9 40 10 22 25 -11 9 -17 8 -27 -4z"/>
 <path d="M13375 1210 c-4 -7 -3 -16 3 -22 14 -14 45 -2 40 15 -6 16 -34 21 -43 7z"/>
 <path d="M12091 1179 c-28 -11 -18 -27 19 -31 19 -2 25 2 25 16 0 24 -12 28 -44 15z"/>
 <path d="M13303 1115 c-8 -23 5 -33 39 -31 26 1 33 6 33 21 0 16 -7 20 -33 22 -20 1 -35 -4 -39 -12z"/>
 <path d="M13095 1100 c-4 -7 -3 -16 3 -22 14 -14 45 -2 40 15 -6 16 -34 21 -43 7z"/>
 <path d="M13232 1085 c-41 -18 -37 -41 6 -39 21 1 29 -2 26 -11 -7 -18 40 -47 55 -32 8 8 6 16 -6 30 -10 10 -18 28 -18 40 0 27 -20 31 -63 12z"/>
 <path d="M10754 1020 c-44 -17 -37 -41 12 -46 27 -3 49 19 40 41 -6 17 -20 18 -52 5z"/>
 <path d="M13064 979 c-10 -17 13 -36 27 -22 12 12 4 33 -11 33 -5 0 -12 -5 -16 -11z"/>
 <path d="M8065 950 c-10 -16 16 -43 28 -31 11 11 2 41 -12 41 -5 0 -13 -5 -16 -10z"/>
 <path d="M13195 950 c-4 -6 -3 -16 3 -22 6 -6 12 -6 17 2 4 6 3 16 -3 22 -6 6 -12 6 -17 -2z"/>
 <path d="M13265 930 c-4 -7 -3 -16 3 -22 14 -14 45 -2 40 15 -6 16 -34 21 -43 7z"/>
 <path d="M9670 904 c-11 -12 -10 -18 3 -32 16 -15 18 -15 34 0 13 14 14 20 3 32 -7 9 -16 16 -20 16 -4 0 -13 -7 -20 -16z"/>
 <path d="M8701 836 c-9 -10 -9 -16 -1 -21 17 -10 37 12 24 25 -8 8 -15 6 -23 -4z"/>
 <path d="M13064 805 c-4 -8 -3 -23 0 -32 6 -15 8 -15 23 -1 16 17 12 48 -7 48 -6 0 -13 -7 -16 -15z"/>
 <path d="M13125 801 c-7 -12 12 -24 25 -16 11 7 4 25 -10 25 -5 0 -11 -4 -15 -9z"/>
 <path d="M9808 776 c-8 -20 -9 -29 0 -38 16 -16 44 9 40 35 -5 31 -26 32 -40 3z"/>
 <path d="M13016 671 c-3 -5 0 -14 8 -20 10 -8 16 -8 25 2 6 8 8 17 4 20 -9 10 -31 9 -37 -2z"/>
 <path d="M9964 639 c-10 -17 13 -36 27 -22 12 12 4 33 -11 33 -5 0 -12 -5 -16 -11z"/>
 <path d="M13060 620 c-14 -26 0 -46 24 -37 20 8 21 31 2 46 -12 10 -17 8 -26 -9z"/>
 </g>

</svg>